<?xml version="1.0" encoding="UTF-8"?>
<svg xmlns="http://www.w3.org/2000/svg" xmlns:xlink="http://www.w3.org/1999/xlink" version="1.1" viewBox="0 0 416 381.4">
  <defs>
    <style>
      .cls-1 {
        fill: #6b2700;
      }

      .cls-2 {
        fill: none;
      }

      .cls-3 {
        fill: #ffe200;
      }

      .cls-4 {
        fill: #fccf00;
      }

      .cls-5 {
        fill: #ad7a38;
      }

      .cls-6 {
        clip-path: url(#clippath-1);
      }

      .cls-7 {
        fill: #d7a400;
      }

      .cls-8 {
        fill: #dab300;
      }

      .cls-9 {
        fill: #fff;
      }

      .cls-10 {
        fill: #f7f1d5;
      }

      .cls-11 {
        fill: #eddfae;
      }

      .cls-12 {
        clip-path: url(#clippath);
      }

      .cls-13 {
        fill: #bd8943;
      }
    </style>
    <clipPath id="clippath">
      <polygon class="cls-2" points="416 172.4 415.5 168.8 414.8 165.3 413.5 161.9 412.7 158.4 412.4 154.8 411 151.4 410.3 147.9 409.8 144.3 408.5 140.9 407.8 137.3 406.8 133.9 406 130.4 405 126.9 404.5 123.3 403.3 119.9 403 116.2 401.6 112.9 401.3 109.2 400.4 105.8 399.2 102.4 398.6 98.8 397.9 95.3 396.8 91.8 395.9 88.3 394.8 84.9 394.3 81.3 393.8 77.7 392.6 74.2 391.5 70.8 390.7 67.2 389.8 63.7 388.9 60.2 388.5 56.6 387.7 53 386.6 49.6 385.9 46 385.1 42.4 383.7 39.2 380.8 37.4 377.5 37 374 36.9 370.4 36.5 366.9 37 363.3 37 359.8 36.5 356.2 36.8 352.7 36.4 349.1 36.4 345.5 36.6 342 36.5 338.4 36.5 334.8 36.5 331.3 36.9 327.7 36.8 324.2 36.7 320.6 36.7 317 37 313.4 37 309.7 36.5 306.1 36.3 302.4 37 298.7 37 295 36.9 291.4 37 287.7 36.3 284 36.9 280.3 36.3 276.6 36.4 272.9 37 269.2 36.4 265.5 36.3 261.8 36.6 258.1 36.5 254.4 36.8 250.7 37 247 36.8 243.3 36.7 239.6 36.8 236 36.6 232.3 36.2 228.6 36.5 224.9 36.8 221.2 36.5 217.6 36.7 213.9 36.4 210.2 36.8 206.5 37 202.8 37 199.1 36.8 195.4 36.6 191.7 36.5 188 36.9 184.3 36.8 180.6 36.4 176.9 36.6 173.1 36.9 169.5 36.3 165.8 36.7 162.2 36.8 158.5 36.9 154.8 36.2 151.1 37 147.4 36.4 143.7 36.3 140 36.8 136.4 36.5 132.7 36.8 129 36.3 125.3 36.9 121.6 36.8 117.9 37 114.2 36.7 110.5 36.5 106.7 37 103 37 99.5 36.7 95.9 36.9 92.4 36.4 88.8 36.5 85.3 36.4 81.7 36.7 78.2 36.8 74.6 36.7 71.1 36.2 67.5 36.8 63.9 36.8 60.4 36.3 56.8 36.4 53.2 36.4 49.7 36.4 46.1 36.3 42.5 36.8 38.9 36.3 35.6 37.4 32.8 39.3 31.2 42.4 30.9 46 29.8 49.5 29 53 28.2 56.5 27.2 59.9 26.6 63.5 25.9 67 24.7 70.4 23.8 73.9 23.4 77.5 21.9 80.9 21.5 84.5 20.8 88 20.1 91.6 18.9 95 18.2 98.6 17.5 102.1 16.2 105.5 15.5 109 14.5 112.4 13.4 115.9 12.6 119.4 11.9 123 11.5 126.6 10.5 130 9.7 133.5 8.4 137 7.7 140.5 6.6 144 6 147.6 5.4 151.1 4.7 154.7 3.9 158.2 2.8 161.7 2.1 165.3 .9 168.7 .4 172.4 0 175.8 1.3 179.1 4.3 181 7.6 181.4 11.1 181.6 14.7 182 18.2 182.1 21.7 181.9 25.2 181.6 28.7 181.6 32.3 181.5 35.8 181.5 39.4 181.6 42.9 182.1 46.4 182 50 181.4 53.5 182.1 57.1 181.6 60.6 181.7 64.2 181.9 67.7 181.9 71.3 182.2 74.9 181.9 78.4 182.1 82 182 85.7 182.2 89.3 181.5 93 181.6 96.6 181.8 100.2 182.1 103.9 181.5 107.5 181.5 111.1 181.9 114.8 181.9 118.5 181.9 122.1 182.1 125.8 181.6 129.4 181.7 133.1 181.9 136.7 181.9 140.4 181.7 144.1 181.3 147.7 182.2 151.4 181.6 155.1 181.5 158.8 181.4 162.4 181.9 166.1 181.7 169.8 181.9 173.4 182 177.1 182.1 180.7 182.1 184.4 181.6 188 181.7 191.6 182 195.3 181.5 198.9 181.4 202.6 182 206.2 181.8 209.9 182.1 213.6 182.1 217.2 181.4 220.9 182.2 224.5 181.7 228.2 181.4 231.9 181.7 235.5 182 239.2 181.4 242.9 181.5 246.6 181.8 250.3 181.8 253.9 181.7 257.6 181.4 261.2 181.5 264.9 181.6 268.5 182.1 272.1 181.7 275.8 181.9 279.4 181.9 283.1 181.5 286.7 181.5 290.4 181.4 294 181.9 297.7 181.6 301.3 181.6 305 181.8 308.7 181.5 312.3 181.7 316 182.1 319.7 182.1 323.3 182 327 181.5 330.7 181.6 334.4 181.8 337.9 181.6 341.5 182.1 345 181.9 348.5 181.4 352 181.8 355.5 181.9 359.1 181.4 362.6 181.5 366.2 181.9 369.7 182.2 373.2 181.6 376.8 181.8 380.3 181.9 383.9 181.8 387.4 181.4 391 182 394.5 181.5 398.1 181.7 401.7 181.6 405.2 181.5 408.8 182.1 412 180.7 414.9 178.9 415.9 175.7 416 172.4"/>
    </clipPath>
    <clipPath id="clippath-1">
      <polygon class="cls-2" points="353.7 283.6 352.6 286.8 350.6 289.7 347.1 290.3 343.5 290.7 339.8 290.2 336.2 289.9 332.5 290.3 328.9 290.7 325.3 290.3 321.6 290.3 318 290.1 314.3 290.2 310.7 290.3 307 290 303.4 290.1 299.8 290.3 296.2 290.3 292.5 289.9 288.9 290.3 285.2 290.7 281.6 290.3 278 290.7 274.3 290.6 270.7 290.1 267 290.6 263.3 290.2 259.7 290 256 290.2 252.4 290.5 248.7 290 245 290.7 241.4 290.2 237.7 290.1 234.5 289.2 231.8 287 230.7 283.6 231 280 231.3 276.3 231 272.6 231.1 269 230.9 265.3 230.7 261.6 230.8 257.9 230.9 254.3 231.3 250.6 230.9 246.9 231 243.2 231.2 239.5 230.9 235.8 231.4 232.1 231.2 228.4 230.9 224.7 231.3 221.1 230.8 217.4 231.3 213.7 230.7 209.9 231.3 206.2 231.1 202.5 231.8 199.1 234.4 196.8 237.7 195.4 241.3 195.7 245 195.4 248.6 196.2 252.2 196.2 255.9 195.9 259.5 196.1 263.2 196.1 266.8 195.5 270.4 195.5 274.1 195.4 277.7 195.4 281.3 196.2 285 196.1 288.6 195.9 292.2 195.5 295.9 195.4 299.5 195.9 303.2 195.8 306.8 195.7 310.5 196 314.1 195.4 317.8 195.8 321.4 195.6 325.1 195.9 328.7 196 332.4 196.2 336.1 195.4 339.7 196.1 343.4 195.6 347.1 195.8 350.6 196.5 352.6 199.4 353.6 202.5 353.9 206.2 354.1 209.9 354 213.5 353.7 217.2 353.5 220.9 353.9 224.5 354 228.2 353.9 231.9 353.7 235.6 353.8 239.2 353.8 242.9 353.8 246.6 354.2 250.3 354.1 254 354 257.7 353.8 261.4 353.4 265.1 354 268.8 353.9 272.5 353.4 276.2 353.8 279.9 353.7 283.6"/>
    </clipPath>
  </defs>
  <!-- Generator: Adobe Illustrator 28.6.0, SVG Export Plug-In . SVG Version: 1.2.0 Build 709)  -->
  <g>
    <g id="_レイヤー_1" data-name="レイヤー_1">
      <g>
        <polygon class="cls-11" points="396.6 375.3 393.2 375.8 389.6 375.4 386 375.4 382.4 375.5 378.8 375.2 375.1 375.8 371.5 375.8 367.9 376 364.3 375.9 360.7 375.6 357 375.8 353.4 375.2 349.8 375.3 346.2 375.3 342.5 375.3 338.9 375.3 335.3 375.5 331.6 376 328 375.9 324.4 375.7 320.8 375.1 317.1 375.9 313.5 375.8 309.9 375.8 306.3 375.5 302.6 375.9 299 375.4 295.4 375.8 291.8 375.7 288.1 375.8 284.5 375.2 280.9 375.7 277.3 375.8 273.6 375.8 270 375.6 266.4 375.7 262.7 375.8 259.1 375.7 255.5 375.2 251.9 375.8 248.3 375.7 244.6 375.9 241 375.9 237.4 375.7 233.8 375.1 230.2 375.8 226.5 375.5 222.9 375.4 219.3 375.6 215.6 375.9 212 375.6 208.4 375.7 204.8 375.9 201.2 375.4 197.5 375.6 193.9 375.3 190.3 375.2 186.7 375.7 183.1 375.6 179.5 375.7 175.8 375.4 172.2 375.1 168.6 375.1 164.9 375.4 161.3 375.9 157.7 375.4 154 375.8 150.4 375.2 146.8 375.8 143.1 375.3 139.5 375.5 135.9 375.9 132.2 375.7 128.6 375.4 125 375.6 121.3 375.2 117.7 375.7 114 375.1 110.4 375.3 106.8 375.2 103.1 375.1 99.5 375.5 95.8 375.2 92.2 375.6 88.5 375.2 84.9 375.5 81.3 375.4 77.7 375.6 74 375.9 70.4 375.4 66.7 375.7 63.1 375.3 59.5 375.4 55.8 375.7 52.1 375.9 48.5 375.3 44.8 375.9 41.2 375.8 37.5 375.8 33.9 375.3 30.2 375.7 26.5 375.4 22.8 375.4 19.2 375.5 19.1 371.9 19.2 368.3 19.6 364.6 19.4 361 19.2 357.4 18.9 353.8 18.8 350.1 18.9 346.5 18.9 342.9 19.2 339.3 19.3 335.7 19.1 332.1 19.3 328.5 19.5 324.8 19.5 321.2 19.3 317.6 19.2 314 19.5 310.3 18.7 306.7 19.3 303.1 19 299.4 19.2 295.8 18.8 292.2 19 288.5 18.8 284.9 18.8 281.3 19.4 277.7 18.9 274 18.9 270.4 18.8 266.7 18.8 263.1 18.9 259.5 19.5 255.8 18.8 252.2 19.2 248.6 18.8 244.9 18.8 241.3 18.7 237.6 18.9 234 19.4 230.3 18.9 226.7 19.1 223.1 19.4 219.5 18.8 215.8 19.6 212.2 19 208.5 19.4 204.9 18.8 201.3 19 197.6 18.9 194 19.2 190.3 18.9 186.6 18.9 183 18.9 179.3 19.4 175.7 18.9 172 19.1 168.3 19.4 164.7 19.4 161.2 22.8 160.9 26.4 160.9 30 161 33.6 161.4 37.2 160.6 40.9 160.6 44.5 160.6 48.1 161.2 51.7 161.3 55.3 161.2 59 161.3 62.6 160.9 66.2 160.9 69.8 160.7 73.5 160.6 77.1 160.8 80.7 160.7 84.4 161.4 88 160.9 91.6 160.7 95.2 161.4 98.9 160.7 102.5 161.3 106.1 161.3 109.7 160.9 113.4 161.1 117 160.8 120.6 161.1 124.2 161.4 127.9 160.8 131.5 160.6 135.1 160.8 138.7 161.1 142.4 161.3 146 160.8 149.6 161.4 153.3 160.9 156.9 160.8 160.5 160.7 164.1 160.6 167.7 160.9 171.4 160.6 175 160.9 178.6 160.7 182.2 160.8 185.8 161 189.5 161.3 193.1 161.4 196.7 160.9 200.4 160.9 204 160.8 207.6 160.8 211.2 161.4 214.8 160.7 218.5 160.8 222.1 160.6 225.7 161 229.3 160.9 232.9 161 236.5 160.9 240.2 160.9 243.8 160.6 247.4 161.3 251.1 161.3 254.7 160.6 258.3 160.8 262 161.1 265.6 161.4 269.2 160.8 272.9 160.6 276.5 161.3 280.1 161.2 283.8 161.1 287.4 160.8 291 161 294.7 160.9 298.3 161.4 302 161.1 305.6 160.8 309.2 160.9 312.9 160.9 316.5 161.2 320.2 161.4 323.8 161.3 327.5 160.7 331.1 160.7 334.7 160.8 338.3 161.1 342 161 345.6 161.3 349.3 160.9 352.9 161.4 356.5 161.4 360.2 160.8 363.9 160.9 367.5 160.7 371.2 161.3 374.8 161.2 378.5 160.7 382.1 160.8 385.8 160.7 389.5 161.4 393.2 160.7 397.1 160.7 396.7 164.6 397.2 168.2 397.1 171.9 397 175.5 396.7 179.1 397.2 182.7 397 186.4 397.1 190 396.6 193.6 397.3 197.2 396.4 200.8 396.7 204.4 397 208.1 396.8 211.7 396.6 215.3 397 218.9 397 222.5 397.2 226.2 397.2 229.8 396.5 233.5 396.8 237.1 397 240.7 396.4 244.3 396.9 248 397.2 251.6 396.4 255.2 397 258.9 396.9 262.5 396.7 266.1 396.6 269.8 396.5 273.4 396.6 277.1 396.9 280.7 396.7 284.3 396.5 288 396.9 291.6 396.5 295.3 396.9 298.9 396.8 302.5 396.9 306.2 397 309.8 396.7 313.4 396.6 317 396.5 320.7 396.9 324.3 396.9 328 396.5 331.6 397 335.2 397.2 338.9 396.7 342.6 396.8 346.2 396.6 349.9 397 353.5 397.2 357.2 397.1 360.8 397.2 364.5 397.2 368.2 396.9 371.9 396.6 375.3"/>
        <g>
          <polygon class="cls-5" points="416 172.4 415.5 168.8 414.8 165.3 413.5 161.9 412.7 158.4 412.4 154.8 411 151.4 410.3 147.9 409.8 144.3 408.5 140.9 407.8 137.3 406.8 133.9 406 130.4 405 126.9 404.5 123.3 403.3 119.9 403 116.2 401.6 112.9 401.3 109.2 400.4 105.8 399.2 102.4 398.6 98.8 397.9 95.3 396.8 91.8 395.9 88.3 394.8 84.9 394.3 81.3 393.8 77.7 392.6 74.2 391.5 70.8 390.7 67.2 389.8 63.7 388.9 60.2 388.5 56.6 387.7 53 386.6 49.6 385.9 46 385.1 42.4 383.7 39.2 380.8 37.4 377.5 37 374 36.9 370.4 36.5 366.9 37 363.3 37 359.8 36.5 356.2 36.8 352.7 36.4 349.1 36.4 345.5 36.6 342 36.5 338.4 36.5 334.8 36.5 331.3 36.9 327.7 36.8 324.2 36.7 320.6 36.7 317 37 313.4 37 309.7 36.5 306.1 36.3 302.4 37 298.7 37 295 36.9 291.4 37 287.7 36.3 284 36.9 280.3 36.3 276.6 36.4 272.9 37 269.2 36.4 265.5 36.3 261.8 36.6 258.1 36.5 254.4 36.8 250.7 37 247 36.8 243.3 36.7 239.6 36.8 236 36.6 232.3 36.2 228.6 36.5 224.9 36.8 221.2 36.5 217.6 36.7 213.9 36.4 210.2 36.8 206.5 37 202.8 37 199.1 36.8 195.4 36.6 191.7 36.5 188 36.9 184.3 36.8 180.6 36.4 176.9 36.6 173.1 36.9 169.5 36.3 165.8 36.7 162.2 36.8 158.5 36.9 154.8 36.2 151.1 37 147.4 36.4 143.7 36.3 140 36.8 136.4 36.5 132.7 36.8 129 36.3 125.3 36.9 121.6 36.8 117.9 37 114.2 36.7 110.5 36.5 106.7 37 103 37 99.5 36.7 95.9 36.9 92.4 36.4 88.8 36.5 85.3 36.4 81.7 36.7 78.2 36.8 74.6 36.7 71.1 36.2 67.5 36.8 63.9 36.8 60.4 36.3 56.8 36.4 53.2 36.4 49.7 36.4 46.1 36.3 42.5 36.8 38.9 36.3 35.6 37.4 32.8 39.3 31.2 42.4 30.9 46 29.8 49.5 29 53 28.2 56.5 27.2 59.9 26.6 63.5 25.9 67 24.7 70.4 23.8 73.9 23.4 77.5 21.9 80.9 21.5 84.5 20.8 88 20.1 91.6 18.9 95 18.2 98.6 17.5 102.1 16.2 105.5 15.5 109 14.5 112.4 13.4 115.9 12.6 119.4 11.9 123 11.5 126.6 10.5 130 9.7 133.5 8.4 137 7.7 140.5 6.6 144 6 147.6 5.4 151.1 4.7 154.7 3.9 158.2 2.8 161.7 2.1 165.3 .9 168.7 .4 172.4 0 175.8 1.3 179.1 4.3 181 7.6 181.4 11.1 181.6 14.7 182 18.2 182.1 21.7 181.9 25.2 181.6 28.7 181.6 32.3 181.5 35.8 181.5 39.4 181.6 42.9 182.1 46.4 182 50 181.4 53.5 182.1 57.1 181.6 60.6 181.7 64.2 181.9 67.7 181.9 71.3 182.2 74.9 181.9 78.4 182.1 82 182 85.7 182.2 89.3 181.5 93 181.6 96.6 181.8 100.2 182.1 103.9 181.5 107.5 181.5 111.1 181.9 114.8 181.9 118.5 181.9 122.1 182.1 125.8 181.6 129.4 181.7 133.1 181.9 136.7 181.9 140.4 181.7 144.1 181.3 147.7 182.2 151.4 181.6 155.1 181.5 158.8 181.4 162.4 181.9 166.1 181.7 169.8 181.9 173.4 182 177.1 182.1 180.7 182.1 184.4 181.6 188 181.7 191.6 182 195.3 181.5 198.9 181.4 202.6 182 206.2 181.8 209.9 182.1 213.6 182.1 217.2 181.4 220.9 182.2 224.5 181.7 228.2 181.4 231.9 181.7 235.5 182 239.2 181.4 242.9 181.5 246.6 181.8 250.3 181.8 253.9 181.7 257.6 181.4 261.2 181.5 264.9 181.6 268.5 182.1 272.1 181.7 275.8 181.9 279.4 181.9 283.1 181.5 286.7 181.5 290.4 181.4 294 181.9 297.7 181.6 301.3 181.6 305 181.8 308.7 181.5 312.3 181.7 316 182.1 319.7 182.1 323.3 182 327 181.5 330.7 181.6 334.4 181.8 337.9 181.6 341.5 182.1 345 181.9 348.5 181.4 352 181.8 355.5 181.9 359.1 181.4 362.6 181.5 366.2 181.9 369.7 182.2 373.2 181.6 376.8 181.8 380.3 181.9 383.9 181.8 387.4 181.4 391 182 394.5 181.5 398.1 181.7 401.7 181.6 405.2 181.5 408.8 182.1 412 180.7 414.9 178.9 415.9 175.7 416 172.4"/>
          <g class="cls-12">
            <g>
              <polygon class="cls-13" points="102.9 36.5 107.2 34 110.9 34.1 114.6 34.2 118.2 34.7 121.9 34.2 125.6 34.5 129.3 34.5 133 34.1 136.7 34 140.4 34 144.1 34.5 147.8 34.2 151.5 34.2 155.2 34.3 158.8 34 162.5 34.3 166.3 34.7 170 34.7 173 36.7 173.3 40.3 173 43.9 172.6 47.5 172.6 51.1 172 54.7 171.9 58.3 172.2 61.9 171.7 65.5 171.4 69.2 171.7 72.8 171.5 76.4 170.9 80 170.5 83.7 170.8 87.3 170.5 90.9 170.3 94.5 170.1 98.2 170.4 101.8 169.6 105.4 169.9 109.1 169.5 112.7 169.5 116.3 169.4 119.9 168.6 123.5 169.1 127.1 168.5 130.8 168.8 134.4 168.3 138 168.1 141.6 167.5 145.3 168 148.9 167.7 152.6 167.5 156.2 167.6 159.9 167 163.5 166.5 167.1 166.5 170.8 166.4 174.4 166.3 178.1 166.2 181.8 162.1 183.5 158.4 183.5 154.8 183.4 151.1 184 147.5 183.5 143.9 183.7 140.2 184 136.6 183.8 132.9 183.4 129.3 183.3 125.6 183.3 122 183.6 118.3 183.8 114.6 183.9 111 183.6 107.3 183.6 103.6 184.1 100 183.4 96.3 183.9 92.6 183.5 89 184 85.3 183.9 81.5 183.2 82.7 178.2 82.7 174.6 83.3 171.1 84.2 167.7 84.2 164.1 84.9 160.6 85.4 157 85.8 153.5 86.4 150 87.2 146.5 87.6 142.9 87.9 139.4 88.3 135.8 89.6 132.4 89.3 128.7 89.9 125.2 90.3 121.7 91.2 118.2 91.8 114.6 92.4 111.1 93.1 107.6 93 104 93.8 100.5 94.5 97 95.1 93.5 95 89.9 95.4 86.3 96.3 82.8 96.7 79.3 97.1 75.7 97.9 72.2 98.1 68.6 98.7 65.1 99.6 61.6 100.2 58 100.8 54.5 101.1 50.9 101.8 47.4 101.6 43.7 102.4 40.2 102.9 36.5"/>
              <polygon class="cls-13" points="243.1 36.4 247.3 34 251 34.2 254.7 33.7 258.3 33.7 262 34.3 265.7 33.8 269.4 33.9 273.1 34.3 276.8 33.8 280.5 34 284.2 33.8 287.9 33.8 291.6 33.6 295.3 34 298.9 33.6 302.7 34.2 306.4 33.6 311.5 32.7 313.3 36.7 314.1 40.1 314.4 43.7 314.7 47.3 315.4 50.8 316 54.3 316.8 57.8 316.9 61.3 317.1 64.9 318 68.4 318.8 71.9 319.2 75.4 319.8 79 320.3 82.5 320.4 86.1 320.8 89.6 321.6 93.1 321.9 96.7 322.4 100.2 322.7 103.8 323.7 107.3 324.5 110.8 324.9 114.3 325 117.9 326 121.3 326.5 124.9 326.6 128.5 327.3 132 327.5 135.6 328 139.1 328.7 142.6 329.1 146.2 329.7 149.7 330.1 153.3 331.1 156.8 331.5 160.3 331.9 163.9 332.4 167.5 333.2 171 333.7 174.6 333.7 178.2 334.1 181.5 330.4 184.7 326.8 184.7 323.1 184.6 319.5 184.7 315.9 184 312.2 184.6 308.6 184 305 184.1 301.3 184.7 297.6 184.1 294 184 290.3 184.3 286.7 184.2 283 184.5 279.4 184.7 275.7 184.5 272 184.4 268.4 184.5 264.7 184.3 261 183.9 257.4 184.2 253.7 184.5 250.3 181.7 250 178.1 250.1 174.5 249.5 170.9 249.2 167.3 249 163.7 249 160.1 249 156.5 249 152.8 248.4 149.2 248.3 145.6 248.5 141.9 248.1 138.3 247.7 134.7 248.2 131.1 247.5 127.5 247.3 123.9 247 120.2 247.5 116.6 246.5 113 247 109.3 246.9 105.7 246.2 102.1 246.4 98.5 245.9 94.9 246.2 91.2 245.4 87.6 245.4 84 245 80.4 245.1 76.7 245.2 73.1 244.4 69.5 244.3 65.8 244.4 62.2 244 58.6 244.4 54.9 244.1 51.3 244 47.6 243.6 44 243.2 40.3 243.1 36.4"/>
            </g>
          </g>
        </g>
        <g>
          <polygon class="cls-3" points="340.1 81.4 336.5 80.7 332.9 81.4 329.2 80.9 325.6 80.7 322 81.3 318.4 80.9 314.8 81.4 311.2 81.2 307.6 80.7 304 80.6 300.4 81.3 296.8 81.2 293.2 81.2 289.6 80.7 286 80.6 282.4 80.7 278.7 80.8 275.1 81 271.5 80.9 267.9 80.6 264.3 81 260.7 81.1 257.1 80.6 253.5 81 249.9 81 246.3 80.7 242.7 81.1 239.1 81 235.5 81.4 231.9 81.1 228.3 81.3 224.7 80.9 221 81.1 217.4 81 213.8 80.8 210.2 81.2 206.6 81.1 203 80.8 199.3 81.2 195.7 81.3 192.1 80.8 188.5 81.2 184.9 81.4 181.2 81 177.6 80.7 174 80.7 170.4 81 166.8 81.3 163.1 80.7 159.5 80.8 155.9 80.8 152.2 80.8 148.6 80.7 145 81 141.4 80.6 137.8 81.2 134.2 81.3 130.6 80.8 126.9 81.2 123.3 81.1 119.7 81.2 116 80.6 112.4 81 108.8 81 105.1 81.4 101.5 80.9 97.8 80.9 94.2 81.1 90.6 81.4 86.9 80.7 83.3 81.1 79.6 81.4 75.9 80.6 73.1 80 70.9 78 69.7 75.1 69.7 71.5 70 67.9 69.7 64.3 70.2 60.7 69.8 57.1 69.7 53.5 70.2 49.8 70.1 46.2 70.3 42.6 70.3 39 69.9 35.3 70.3 31.7 70 28.1 70.3 24.5 69.7 20.8 69.8 17.2 69.8 13.5 69.8 9.9 70.6 6.8 72.9 4.6 75.9 3.6 79.5 4 83.2 3.9 86.8 3.8 90.4 4.1 94 4.1 97.6 4.3 101.2 3.6 104.8 3.8 108.4 4 112 3.8 115.6 4.3 119.2 3.9 122.8 4.3 126.4 3.9 130 4.1 133.6 4.1 137.3 4.2 140.9 3.8 144.5 3.6 148.1 3.6 151.7 3.8 155.3 4.4 158.9 3.9 162.5 4.1 166.1 3.6 169.7 4.2 173.3 4.4 176.9 3.8 180.5 4.3 184.1 3.7 187.7 4.2 191.3 3.7 195 4.2 198.6 4 202.2 3.9 205.8 4 209.4 3.8 213 4.3 216.7 4.1 220.3 4.2 223.9 4 227.5 3.6 231.1 3.8 234.8 4.3 238.4 3.8 242 3.6 245.6 3.6 249.2 4 252.9 4.1 256.5 3.9 260.1 3.7 263.8 3.8 267.4 4.3 271 4 274.6 3.7 278.2 4.2 281.8 3.7 285.4 4.3 289.1 3.9 292.7 3.7 296.3 4 300 4 303.6 3.6 307.2 3.7 310.9 3.9 314.5 3.9 318.2 3.9 321.8 4.1 325.4 4.1 329.1 3.9 332.7 3.8 336.4 4.3 340.1 4.3 343 4.9 345 7 346.1 9.9 346 13.5 345.7 17.1 346 20.7 345.9 24.3 345.6 27.9 345.6 31.5 346.1 35.1 346.4 38.8 346 42.4 345.7 46 345.8 49.6 346.1 53.3 345.7 56.9 346 60.5 345.9 64.2 345.6 67.8 346 71.5 346.1 75.1 345.3 78.1 343.1 80.3 340.1 81.4"/>
          <path class="cls-5" d="M340.4,85.1l-3.9-.8-3.5.7-4.2-.5h-3c0-.1-3.7.5-3.7.5l-3.7-.4-3.5.5-4.3-.2-3.4-.5h-3c0,0-3.6.6-3.6.6l-7.9-.2-3.4-.5h-3.4c0,0-7.1.1-7.1.1l-3.6.3-7.2-.4-3.6.4h-3.9c0,0-3.4-.4-3.4-.4l-3.4.3h-3.8s-3.5-.3-3.5-.3l-3.5.4h-3.6c0,0-3.7.3-3.7.3l-3.7-.3-3.7.2-3.6-.4h-3.4c0,.1-3.8,0-3.8,0l-3.5-.2-3.5.4h-4.2c0,0-3.2-.4-3.2-.4l-3.2.4-4.2.2-3.5-.5-7.2.5-7.4-.6h-3.4s-7.4.6-7.4.6l-3.7-.6h-3.3c0,0-3.7,0-3.7,0h-3.6s-3.5-.1-3.5-.1l-3.8.4-3.5-.4-3.6.6h-3.9c0,0-3.5-.4-3.5-.4l-3.4.4h-3.9c0,0-3.8,0-3.8,0l-3.5-.5-3.4.3h-3.6s-3.9.4-3.9.4l-3.8-.5h-3.4s-3.5.2-3.5.2l-4,.3-3.6-.7-3.1.3-4.3.3-8-1.6-3.5-3.2-1.7-4.3v-4.4s.3-3.5.3-3.5l-.3-3.7.4-3.5-.4-3.5v-3.9c0,0,.4-3.6.4-3.6l-.2-3.5.3-3.7v-3.3s-.5-3.8-.5-3.8l.4-3.7-.2-3.6.2-3.4-.6-3.6v-7.6c.1,0,.1-4,.1-4l1.1-4.5,3.7-3.5L75.6,0l4.1.4,7.2-.2,3.6.3h3.5s3.4.1,3.4.1l3.6-.7,7.5.4,3.7-.2,3.5.4,3.6-.3,3.5.4,3.5-.5,4,.3h3.4s3.5,0,3.5,0l3.4-.4,3.8-.3,8.1.2,3.1.5,3.4-.5,3.6.2,3.8-.5,3.9.6h3c0,.1,3.8-.5,3.8-.5l3.6.6,3.6-.6,3.6.5,3.6-.6,3.8.6,7-.3h3.7c0,0,3.7-.1,3.7-.1l3.6.5,3.4-.2h3.6c0,.1,7.3-.5,7.3-.5l3.9.2,3.4.4,3.5-.5,3.6-.2h4s3.6.5,3.6.5h3.4c0,0,7.1-.3,7.1-.3h4.2c0,0,3.3.5,3.3.5l7.3-.6,3.5.5,3.7-.5,3.7.7,3.4-.4,3.8-.2,3.8.3h3.2s3.7-.4,3.7-.4l11.1.4h3.6s3.9.2,3.9.2h3.5s7.5-.3,7.5-.3l3.7.6h3.8s4.3.9,4.3.9l3.3,3.4,1.6,4.2-.4,7.8.3,3.5v3.8c0,0-.4,3.8-.4,3.8v3.1s.5,3.3.5,3.3l.3,4.2-.7,7.3.4,7.3-.4,3.6.3,3.5-.4,7.3.4,3.6v4.2c.1,0-1.1,4.5-1.1,4.5l-3.5,3.3-4.6,1.7ZM311.5,77.7h3.1c0,.1,3.7-.4,3.7-.4l3.6.4,3.5-.6,4,.2,3.3.4,3.7-.7,3.3.7,1.3-.5,1-1,.4-1.6v-3c0,0-.5-3.8-.5-3.8l.4-7.3-.4-3.7.4-3.7-.4-7.3.7-7.2-.2-3.3-.6-3.6v-3.9c0,0,.4-3.9.4-3.9v-3.2c0,0-.2-3.7-.2-3.7l.4-6.6-.6-1.5-.8-.8-1.4-.3h-3.6s-3.6-.5-3.6-.5l-6.9.3h-3.8s-3.8-.2-3.8-.2h-3.4c0,0-3.7,0-3.7,0l-7.1-.3-3.6.4h-3.8s-3.7-.2-3.7-.2h-3.3c0,.1-4,.6-4,.6l-3.6-.7-3.6.5-3.7-.5-7.2.6-3.8-.5h-3.4c0,0-7,.3-7,.3h-4.3c0,0-3.4-.5-3.4-.5h-3.4l-3.3.2-3.9.6-4.1-.5-3.1-.2-7.2.6h-3.6c0-.1-3.8.1-3.8.1l-3.6-.5-3.3.2h-3.8s-7.4.3-7.4.3l-3.4-.5-3.6.6-3.6-.5-3.6.6-3.6-.6-3.4.6-4.3-.2-3.1-.5-3.4.4-3.6-.2-3.8.5-3.9-.7-6.9-.2-3.3.2-3.7.4-10.9-.4-3.7.5-3.7-.4-3.6.3-3.7-.4h-3.5c0,.1-6.9-.2-6.9-.2l-3.6.7-4-.2h-3.6s-3.6-.3-3.6-.3l-7.3.2-3.1-.3-1.6.5-1,.9-.4,1.7v3.2s-.1,7.1-.1,7.1l.6,3.7-.3,3.8.2,3.7-.4,3.5.4,3.6v3.8s-.2,3.6-.2,3.6l.2,3.8-.6,3.7v3.1c0,0,.5,3.9.5,3.9l-.4,3.7.3,3.6-.3,3.7v2.8s.6,1.5.6,1.5l.9.8,5.1,1,3.2-.2,4-.4,3.7.7,3.2-.3,3.8-.2h4s3.5.4,3.5.4l3.4-.4h3.7s3.9-.4,3.9-.4l3.8.6h3.3s3.5,0,3.5,0l3.9-.5,3.8.6h3.1c0,0,3.8-.7,3.8-.7l3.7.4,3.5-.3h3.9c0,.1,3.5.1,3.5.1h3.7s3.9,0,3.9,0l3.5.6,6.8-.5h3.9l7.3.6,7.2-.5,3.7.5h3.3c0-.1,3.8-.6,3.8-.6l3.8.4h3.2s3.7-.4,3.7-.4l3.9.2h3.5c0,0,3.7-.1,3.7-.1l3.6.4,3.6-.2,3.5.2,3.5-.4h3.6c0,0,3.7-.3,3.7-.3l3.9.3h3.2s3.8-.4,3.8-.4l3.8.5h3.2s3.8-.5,3.8-.5l7.2.4,3.4-.2,7.4-.2h4.2c0,.1,3.4.6,3.4.6h6.7c0,.1,3.6-.5,3.6-.5h4.4c0,.1,3.4.6,3.4.6Z"/>
        </g>
        <polygon class="cls-9" points="353.7 283.6 352.6 286.8 350.6 289.7 347.1 290.3 343.5 290.7 339.8 290.2 336.2 289.9 332.5 290.3 328.9 290.7 325.3 290.3 321.6 290.3 318 290.1 314.3 290.2 310.7 290.3 307 290 303.4 290.1 299.8 290.3 296.2 290.3 292.5 289.9 288.9 290.3 285.2 290.7 281.6 290.3 278 290.7 274.3 290.6 270.7 290.1 267 290.6 263.3 290.2 259.7 290 256 290.2 252.4 290.5 248.7 290 245 290.7 241.4 290.2 237.7 290.1 234.5 289.2 231.8 287 230.7 283.6 231 280 231.3 276.3 231 272.6 231.1 269 230.9 265.3 230.7 261.6 230.8 257.9 230.9 254.3 231.3 250.6 230.9 246.9 231 243.2 231.2 239.5 230.9 235.8 231.4 232.1 231.2 228.4 230.9 224.7 231.3 221.1 230.8 217.4 231.3 213.7 230.7 209.9 231.3 206.2 231.1 202.5 231.8 199.1 234.4 196.8 237.7 195.4 241.3 195.7 245 195.4 248.6 196.2 252.2 196.2 255.9 195.9 259.5 196.1 263.2 196.1 266.8 195.5 270.4 195.5 274.1 195.4 277.7 195.4 281.3 196.2 285 196.1 288.6 195.9 292.2 195.5 295.9 195.4 299.5 195.9 303.2 195.8 306.8 195.7 310.5 196 314.1 195.4 317.8 195.8 321.4 195.6 325.1 195.9 328.7 196 332.4 196.2 336.1 195.4 339.7 196.1 343.4 195.6 347.1 195.8 350.6 196.5 352.6 199.4 353.6 202.5 353.9 206.2 354.1 209.9 354 213.5 353.7 217.2 353.5 220.9 353.9 224.5 354 228.2 353.9 231.9 353.7 235.6 353.8 239.2 353.8 242.9 353.8 246.6 354.2 250.3 354.1 254 354 257.7 353.8 261.4 353.4 265.1 354 268.8 353.9 272.5 353.4 276.2 353.8 279.9 353.7 283.6"/>
        <polygon class="cls-9" points="65.9 235.8 66.5 239.4 66.5 243.1 66 246.7 66.2 250.4 66.5 254 66 257.7 65.8 261.3 66.5 265 65.9 268.6 66.1 272.2 66.1 275.9 66.6 279.5 66 283.2 65.9 286.8 66.1 290.5 66.3 294.1 66.5 297.8 66.3 301.4 66.4 305.1 66 308.8 65.8 312.4 66.6 316.1 65.8 319.7 66.1 323.4 65.9 327.1 66.3 330.8 66 334.5 66.2 334.5 69.7 334.4 73.2 334.7 76.7 334.3 80.2 334.3 83.7 334.2 87.2 334.7 90.7 334.1 94.2 334.9 97.7 334.7 101.2 334.9 104.7 334.3 108.2 334.3 111.7 334.9 115.3 334.3 118.8 334.9 122.3 334.4 122.2 334.5 122.1 330.8 122.6 327.2 122.1 323.6 122 319.9 122.2 316.2 122.5 312.6 122.3 309 122.7 305.3 122.3 301.7 122.5 298.1 122.1 294.4 122.4 290.8 122.2 287.1 122.2 283.5 122 279.8 122.6 276.2 122.7 272.5 122.4 268.8 122.4 265.2 122.6 261.5 121.9 257.9 122.5 254.2 122.7 250.5 122 246.9 122.1 243.2 122.4 239.5 122.2 235.8 121.9 232.4 119 230.5 115.9 229.4 112.3 229.5 108.7 229.3 105.1 229 101.5 229.2 97.9 229 94.3 229.6 90.7 229.4 87.1 229.1 83.5 229.5 79.9 229.3 76.2 229.5 72.6 229.3 69.2 230 66.7 232.4 65.9 235.8"/>
        <polygon class="cls-9" points="181.7 229.2 178.1 229.5 174.5 229.8 170.9 229.1 167.3 229.2 163.7 229.4 160.1 229.6 156.5 229.6 152.9 229.8 149.2 229.5 145.6 229.3 142 229.2 138.4 229.3 135.3 230.6 133.1 232.8 132.3 235.8 132.3 239.4 131.9 243.1 132.3 246.7 132.1 250.4 131.6 254 132.4 257.7 131.6 261.3 131.7 265 132.2 268.6 132.1 272.2 131.5 275.9 131.7 279.5 131.6 283.2 131.9 286.8 132.1 290.5 131.6 294.1 132.3 297.8 131.8 301.4 131.9 305.1 131.5 308.8 132 312.4 132.3 316.1 132 319.7 132.2 323.4 132 327.1 132.2 330.8 132.2 334.5 132 334.4 135.5 334.8 139 334.7 142.5 334.4 146 334.6 149.4 334.7 153 334.3 156.5 334.4 160 334.6 163.5 334.9 167 334.2 170.5 334.3 174 334.3 177.5 334.5 181 334.2 184.5 334.7 188.1 334.1 187.8 334.5 188.2 330.8 188 327.2 187.7 323.6 187.7 319.9 188.3 316.2 188.1 312.6 188 309 187.9 305.3 187.9 301.7 188.3 298.1 187.9 294.4 188.1 290.8 187.9 287.1 188.4 283.5 188.3 279.8 188.5 276.2 187.8 272.5 187.8 268.8 187.8 265.2 188.2 261.5 187.8 257.9 188.4 254.2 188.4 250.5 188.5 246.9 188.4 243.2 187.7 239.5 187.8 235.8 187.2 232.6 184.8 230.5 181.7 229.2"/>
        <polygon class="cls-10" points="214.6 381 211 381.3 207.4 381.3 203.9 381.4 200.3 381.2 196.7 381.3 193.2 380.8 189.6 381.3 186 381.2 182.5 381.3 178.9 380.8 175.3 381.2 171.7 381.2 168.1 381.3 164.6 380.7 161 381.2 157.4 380.8 153.9 380.6 150.3 381.4 146.7 381.1 143.1 381 139.5 381.4 136 381.2 132.4 380.6 128.8 380.5 125.2 380.9 121.6 380.5 118 380.8 114.5 381.4 110.9 380.8 107.3 380.6 103.7 380.7 100.2 381.1 96.6 381.1 93 380.5 89.4 380.6 85.8 381.4 82.3 380.9 78.7 380.8 75.1 381.3 71.5 380.6 67.9 381 64.3 381.2 60.7 380.5 57.1 381 53.5 381.3 49.9 381 46.3 380.5 42.6 381.3 39.1 380.9 38.6 377.4 39.4 373.8 39 370.2 39.3 366.6 39.4 363 38.6 359.4 38.9 355.8 39.1 352.2 39.3 348.6 38.9 344.9 38.6 341.3 39.8 337.7 42.5 334.9 46.2 333.8 49.7 334 53.3 334.1 56.9 333.8 60.4 334.3 64 333.8 67.6 333.7 71.2 334.1 74.7 333.9 78.3 333.8 81.9 333.8 85.5 334 89 334.3 92.6 334.5 96.2 333.9 99.8 334 103.3 334.1 106.9 334.1 110.5 334.4 114.1 334.2 117.7 334.2 121.2 333.8 124.8 334.3 128.4 333.9 132 333.8 135.6 333.8 139.2 333.7 142.7 334 146.3 334.5 149.8 333.9 153.4 334.3 157 334.2 160.6 333.8 164.2 334.4 167.8 334.2 171.4 334.2 175 334.4 178.5 333.8 182.2 333.8 185.7 333.8 189.3 334.3 192.9 334.6 196.5 334.2 200.2 334.2 203.8 334.1 207.4 333.8 211.1 334.9 213.9 337.5 214.9 341.3 214.4 344.9 214.8 348.5 214.5 352.1 214.4 355.7 214.9 359.3 214.2 362.9 214.3 366.5 214.6 370.1 214.6 373.7 214.7 377.3 214.6 381"/>
        <g>
          <polygon class="cls-1" points="221.1 49.4 226.8 49.4 226.8 44 249.2 44 248.7 49.1 253.3 49.1 256.1 40.3 221.1 40.3 221.1 49.4"/>
          <polygon class="cls-1" points="235 34.9 223.6 34.9 223.6 38.7 252.7 38.7 252.7 34.9 241.2 34.9 241.2 32.6 254.8 32.6 254.8 28.5 241.2 28.5 241.2 24.4 235 24.4 235 28.5 221.1 28.5 221.1 32.6 235 32.6 235 34.9"/>
          <path class="cls-1" d="M240.7,57.2c-4.1,0-6.3-.4-6.3-1.6,0-.8,0-.6,0-1.1v-.4c4.7-1.1,13.2-3.5,13.2-3.5l-4.9-4.2c-2.2,1.3-4.9,2.3-8.3,3.8v-5s-6,0-6,0c0,.9,0,2.4,0,4.3v4.3c0,2.2,0,3.9.6,4.8,1.3,2.5,3.9,2.9,10.6,3,3.6,0,9.4-.1,13.9-1.2l.4-5.6c-5.4,1.9-9.3,2.5-12.8,2.5h-.2Z"/>
          <path class="cls-1" d="M284.4,40.2h8.8v-4h-8.3s3.6-4.7,3.6-4.7l-3.9-2.1c2.2-.2,6.7-.9,6.7-.9l-4.3-4.5c-1.7.6-4,1.1-6.9,1.5-1.3.2-3.7.4-7.1.7-3.8.3-7.9.6-12.6.6l1,3.8h.8c1.8,0,3.4,0,4.6,0l-2.7,1.6,2.5,4h-7.7v4h8.7c-.4.6-2,2.9-4.1,4.7-2.1,1.8-4,2.7-6,3.6l2.1,2.7,3-1.2v1.6h0v2.5h0v7.5h27.1v-11.6l2.6,1.3,1.8-2.8c-1.9-.8-4-2.1-5.9-3.8-3-2.6-3.5-4-3.9-4.4M284.5,46.8h-5.6v-5.4c1.2,1.7,3.1,3.5,5.6,5.4M269.7,30.3l3.8-.2v6.1h-5.1s2.8-1.4,2.8-1.4l-1.4-4.4M273.5,58.1h-5.8v-2.5h5.8v2.5M273.5,52.4h-5.8v-2.5h5.8v2.5M273.5,46.8h-5.6c1.9-1.3,3.8-3.1,5.6-5.4v5.4M278.9,29.8l4.2-.3-2,5.2,3.1,1.5h-5.3v-6.4M284.7,58.1h-5.8v-2.5h5.8v2.5M284.7,52.4h-5.8v-2.5h5.8v2.5Z"/>
          <path class="cls-1" d="M141.3,33.9c1.2,0,2.2-.2,2.9-.5v-1.8c-.4.3-.8.6-1.3.7-.4.1-.9.2-1.5.2s-1.3-.2-1.7-.7c-.5-.5-.7-1.1-.7-1.9s.1-1,.4-1.4c.3-.4.6-.7,1.1-.9.3-.1.7-.2,1.1-.2.9,0,1.6.2,2.1.5h.2s0-1.7,0-1.7c-.8-.1-1.6-.2-2.5-.2s-1.7.2-2.3.5c-.8.4-1.3,1-1.7,1.9-.2.5-.3,1-.3,1.6,0,1.3.4,2.3,1.2,3.1.8.7,1.7,1,2.9,1Z"/>
          <path class="cls-1" d="M146.3,33.4c.5.4,1.4.6,2.5.6s1.9-.2,2.4-.6c.7-.5,1-1.1,1-2v-5.6h-1.8v5.2c0,1-.5,1.5-1.6,1.5s-1.6-.5-1.6-1.5v-5.2h-1.8v5.6c0,.8.3,1.5.9,2Z"/>
          <path class="cls-1" d="M155.5,30.6c.4,0,.7.1.9.3,0,0,.2.4.5.9l1.2,2.2h2c-.7-1.2-1.2-2.1-1.5-2.7-.3-.5-.5-.9-.7-1,.9-.4,1.4-1.1,1.4-2.2,0-1.5-1-2.3-3.1-2.3h-1.2c-.5,0-.9,0-1.2,0v8.1h1.8v-3.4M155.5,27.1c.2,0,.4,0,.6,0h.2c.3,0,.6.1.8.3.2.2.3.5.3.8,0,.8-.5,1.2-1.6,1.2s-.2,0-.3,0v-2.3Z"/>
          <path class="cls-1" d="M162.5,30.6c.4,0,.7.1.9.3,0,0,.2.4.5.9l1.2,2.2h2c-.7-1.2-1.2-2.1-1.5-2.7-.3-.5-.5-.9-.7-1,1-.4,1.4-1.1,1.4-2.2,0-1.5-1-2.3-3.1-2.3h-1.2c-.5,0-.9,0-1.2,0v8.1h1.8v-3.4M162.5,27.1c.2,0,.4,0,.6,0h.2c.3,0,.6.1.8.3.2.2.3.5.3.8,0,.8-.5,1.2-1.6,1.2s-.2,0-.3,0v-2.3Z"/>
          <polygon class="cls-1" points="169.1 34 171 34 171 30.7 173.8 25.8 171.7 25.8 170.2 29.3 168.7 25.9 166.5 25.9 169.1 30.6 169.1 34"/>
          <polygon class="cls-1" points="179.5 30.5 183 30.5 183 34 184.8 34 184.8 25.9 183 25.9 183 29.1 179.5 29.1 179.5 25.9 177.7 25.9 177.7 34 179.5 34 179.5 30.5"/>
          <path class="cls-1" d="M190.1,34c1.2,0,2.2-.3,2.9-1,.8-.7,1.2-1.7,1.2-3.1s-.4-2.3-1.2-3.1c-.7-.7-1.7-1-2.9-1s-2.1.3-2.9,1c-.8.7-1.2,1.8-1.2,3.1s.4,2.4,1.2,3.1c.7.6,1.7,1,2.9,1M188.6,28c.4-.6.9-.9,1.5-.9s1.2.3,1.5.9c.3.5.5,1.2.5,2s-.2,1.4-.5,1.9c-.3.6-.9.8-1.5.8s-1.2-.3-1.6-.8c-.3-.5-.5-1.1-.5-1.9s.2-1.4.5-2Z"/>
          <path class="cls-1" d="M196.3,33.4c.5.4,1.4.6,2.5.6s1.9-.2,2.4-.6c.7-.5,1-1.1,1-2v-5.6h-1.8v5.2c0,1-.5,1.5-1.6,1.5s-1.6-.5-1.6-1.5v-5.2h-1.8v5.6c0,.8.3,1.5.9,2Z"/>
          <path class="cls-1" d="M208.2,33.7c.7-.3,1.1-1,1.1-1.9s-.3-1.2-.9-1.7c-.4-.3-.9-.6-1.6-.9-.5-.2-.8-.3-1-.4-.4-.2-.6-.5-.6-.8,0-.5.4-.7,1.2-.7s1,0,1.4.2c.4.2.6.3.8.4,0,0,0,0,.1,0,0,0,.1,0,.1-.1,0-.1,0-.6,0-1.5-.5-.3-1.4-.5-2.5-.5s-1.4.2-2,.6c-.7.4-1.1,1-1.1,1.8s.2,1.1.7,1.5c.3.2.8.5,1.4.8.6.2,1,.4,1.2.5.5.3.8.6.8.9,0,.6-.5.9-1.4.9s-.9,0-1.3-.2c-.3-.1-.7-.3-1.2-.7,0,0,0,0,0,0,0,0,0,0,0,.1v1.6c.6.4,1.6.6,2.8.6s1.7-.1,2.2-.3Z"/>
          <polygon class="cls-1" points="216 32.6 212.2 32.6 212.2 30.4 215.8 30.4 215.8 29 212.2 29 212.2 27.3 216 27.3 216 25.9 210.4 25.9 210.4 34 216 34 216 32.6"/>
          <path class="cls-1" d="M318.8,57v-1.8h10.8v-3.7h-10.8v-1.9h6.2l1.6,1.5,3.7-2.6s-3.7-4.6-5.8-6.9h5.2s0-3.9,0-3.9h-25.1v-1.6h25v-10.4h-30.8c0,4.5,0,8.1,0,10.7,0,5.2-.2,9.1-.5,11.6-.6,4.6-1.5,8.4-3.4,10.8l2.9,2.4c3.9-4.5,6.1-11,6.7-19.6h4.3s-3.6,4.1-3.6,4.1v3.9h8v1.9h-9.7v3.7h9.7v1.8h-11.2v3.8h28.6v-3.8h-11.8M304.9,29.8h18.8v2.6h-18.9c0-.6,0-1.4,0-2.6M311,45.6l4.4-4h6.5s-3.6,1.5-3.6,1.5l2.6,2.5h-9.8Z"/>
          <path class="cls-1" d="M174.6,45.1c-1.7-1.6-4-2.4-6.9-2.4s-5.1.8-6.9,2.4c-1.8,1.7-2.7,4-2.7,6.9s.2,2.7.6,3.8c-.8.4-1.5.7-2.3.9-1.3.4-2.9.6-4.8.6s-4.4-.8-6-2.3c-1.6-1.6-2.5-3.6-2.5-6.2s.5-3.2,1.4-4.6c.9-1.4,2.2-2.3,3.7-2.9,1.1-.4,2.4-.7,3.7-.7,3,0,5.4.5,7.2,1.5h0s.2.2.4,0c0,0,0,0,0-.2h0s0,0,0,0l.2-4.8c-2.5-.4-5.3-.7-8.4-.7s-5.6.5-7.8,1.5c-2.6,1.2-4.5,3.1-5.6,5.7-.6,1.5-.9,3.1-.9,4.9,0,4,1.4,7.1,4.1,9.4,2.5,2.1,5.7,3.1,9.6,3.1s7.4-.6,9.8-2.3c0,0,0,0,0,0,1.7,1.6,4,2.3,6.9,2.3s5.1-.8,6.8-2.4c1.9-1.7,2.8-4,2.8-6.9s-.9-5.2-2.7-6.9M171.2,56.3c-.7,1.4-1.9,2.1-3.4,2.1s-2.7-.7-3.5-2.1c-.6-1.1-.9-2.5-.9-4.3s.3-3.2.9-4.3c.7-1.4,1.9-2.1,3.4-2.1s2.6.7,3.4,2.1c.6,1.1.9,2.5.9,4.2s-.3,3.2-.9,4.3Z"/>
          <path class="cls-1" d="M215.7,45.1c-1.7-1.6-4-2.4-6.9-2.4s-5.1.8-6.9,2.4c-1.8,1.7-2.7,4-2.7,6.9s.2,2.7.6,3.8c-.8.4-1.5.7-2.3.9-1.3.4-2.9.6-4.8.6s-4.4-.8-6-2.3c-1.6-1.6-2.5-3.6-2.5-6.2s.5-3.2,1.4-4.6c.9-1.4,2.2-2.3,3.7-2.9,1.1-.4,2.4-.7,3.7-.7,3,0,5.4.5,7.2,1.5h0s.2.2.4,0c0,0,0,0,0-.2h0s0,0,0,0l.2-4.8c-2.5-.4-5.3-.7-8.4-.7s-5.6.5-7.8,1.5c-2.6,1.2-4.5,3.1-5.6,5.7-.6,1.5-.9,3.1-.9,4.9,0,4,1.4,7.1,4.1,9.4,2.5,2.1,5.7,3.1,9.6,3.1s7.4-.6,9.8-2.3c0,0,0,0,0,0,1.7,1.6,4,2.3,6.9,2.3s5.1-.8,6.8-2.4c1.9-1.7,2.8-4,2.8-6.9s-.9-5.2-2.7-6.9M212.3,56.3c-.7,1.4-1.9,2.1-3.4,2.1s-2.7-.7-3.5-2.1c-.6-1.1-.9-2.5-.9-4.3s.3-3.2.9-4.3c.7-1.4,1.9-2.1,3.4-2.1s2.6.7,3.4,2.1c.6,1.1.9,2.5.9,4.2s-.3,3.2-.9,4.3Z"/>
          <path class="cls-9" d="M122.1,42.6c0,8.4-6.8,15.1-15.1,15.1s-15.1-6.8-15.1-15.1,6.8-15.1,15.1-15.1,15.1,6.8,15.1,15.1Z"/>
          <path class="cls-1" d="M107,21c-11.9,0-21.5,9.6-21.5,21.5s9.6,21.5,21.5,21.5,21.5-9.6,21.5-21.5-9.6-21.5-21.5-21.5M107,57.6c-8.3,0-15.1-6.7-15.1-15.1s6.7-15.1,15.1-15.1,15.1,6.7,15.1,15.1-6.7,15.1-15.1,15.1Z"/>
          <path class="cls-4" d="M114.4,31.8s0,0,0,0c-.1,0,0,0,0,0,0,0,0,0,0-.1.2,0,.4,0,.5-.1,0,0,0,0,0,0,0-.1,0-.3-.1-.4,0,0,0,0,0,0-.2-.4-.4.2-.5-.3-.1-.2.2-.2.3-.3,0,0,0,0,0,0,0,0,0-.1,0-.2h-.4s.1.4,0,.2c0-.2-.1-.6,0-.8-2.1-1.2-4.5-1.8-7.1-1.8-8.1,0-14.6,6.5-14.6,14.6s3.9,11.6,9.4,13.6h0c1.2.5,2.6.8,3.9.9,0,0,0-.2.1-.2-.1-.7-.2-1.4-.6-1.3,0,0,0,0,0-.2,0-.3.6-.5.6-.5,0,0,0-.1,0-.2.3,0,.3.3.3.3,0-.4.2-.9.4-.9,0,0,0,0,0,0,0-.2,0-.2,0-.3h0s0,0,0,0h0c-.1,0,.6.1.9.2-.1-.5-.3-1.2-.3-1.3h0s0,0,0,0c0,0,0,0,0,0,0,0,.1,0,.2-.2,0,0,.2-.1.3-.2h.1c0-.2.2-.3.2-.4,0,0,.1,0,.2,0h0c.1,0,.3,0,.5,0,0-.2.2-.3.4-.5h0c0,0,0-.2,0-.2,0,0,0,0,0,0h0s0,0,0,0v-.2c0-.2.3-1.3.4-1.4,0-.3,0-.4-.2-.5.6-.9,1.3-1.4,2-1.8,0,0,0,0,.1,0,.1-.5.3-.9.3-1.5,0-.1,0-.2,0-.3-.2,0-.4-.1-.6-.1h-.2c0-1.3.6-1.1.2-2.1-.1.5-.5.2-.8.1,0-1.1,0-1.7.5-2.4,0-.3-.1-.5-.2-.8,0-.3.6-.4.3-.7l.4-.4c0,0,0,0,.1,0,0-.5.6-1,.2-1.3h0c0-.2.3-.5.4-.3h.1c-.4-.5.6-.9.4-1.5,0-.2.2-.3.3-.5.2,0,.1.8.5.2,0,0,0,0,0,0,0,0,0-.1,0-.2,0-.2,0-.4,0-.5v-.2c.1-.3-.1-.7.1-1.1-.1-.3-.2,0-.3,0,0,.2-.2.3-.4.4,0,0,0,0,0,0v.6c0-.5-.6,0-.1-.6,0,0,.1,0,.1,0,0,0-.1-.2,0-.3.2-1.1.6.2,1.1-.5,0,0-.1-.2-.2-.1,0-.5.6-.7.4-1.3,1.1,0,.4,0,.1,0M108.6,51.3c-.1,0-.2,0-.3,0h0s0,0,0,0h0s0-.1,0-.1c0-.5,0-.9.2-.9,0,.3,0,.6,0,.9h0c0,0,0,0,0,0h0s0,0,0,0h0s0,0,0,0h0M112.6,35.3h-.2s.2-.5.2-.5c0,0,.4.1,0,.5M113.6,35.1h0c0,.3-.3.5-.3.3,0,0,.2-.2.2-.3Z"/>
          <path class="cls-4" d="M107.6,54s0,0,0,0c0,0,0,0,0,0h0s0,0,0,0h0Z"/>
          <path class="cls-8" d="M101.7,43.7c-.1,0,0,.2-.3.2-.4,0-.5-.3-.7-.6.1-.3-.3-.5,0-.8.2-.1.4-.1.6-.2,0,0,0-.1,0-.2.2.1.2-.2.4,0,.1-.1.2,0,.4.1,0,.3.5.5.3.8-.2.3-.4.5-.7.6Z"/>
          <path class="cls-8" d="M107.5,39.1c-.9-.3-2-.4-2.2-1.6,0-.2,0-.4.1-.5.4-.3.9-.7,1.4-.8.5,0,.7.6,1.2.9.6.3,0,1,.6,1.4-.2.2.2.9-.4.7h-.6Z"/>
          <path class="cls-7" d="M107.8,43.4c-.4,0-.8.4-1.2.2-.3.2-.6.4-.9.5-.3-.2-.3-.3-.5-.6-.2-.3,0-.6-.1-.8.1-.3.4-.2.7-.2.4,0,.8.1,1.2,0,.3,0,.7-.1.7.2h0c.2.2.2.4.2.6,0,0,0,.1-.1.2Z"/>
          <path class="cls-7" d="M101.1,50.5c0,0,0,.4-.3.3-.8-.2-1.6-.4-1.8-1.3,0-.3,0-.5.1-.7.3-.1.5-.5.8-.7.4-.3.7,0,1-.3.2,0,.2.3.5.5.6.4.5,1.3.5,1.8-.2-.1-.6,0-.7.3Z"/>
          <path class="cls-7" d="M98.6,41.3c-.3,0-.4.3-.6.3-.7,0-1.1-.7-1.3-1.3-.1-.3,0-.6.2-.8.2-.2.6-.3.7-.6.4,0,.6.5.8.7.5.4.7,1,.8,1.5-.2,0-.4,0-.6.3Z"/>
          <path class="cls-8" d="M100.5,37.2c-.4-.1-1-.1-1.2-.5-.1-.2-.2-.4,0-.6.2,0,.2-.2.2-.3.3.2.2-.3.5,0,.2.2.4.3.6.5.1.1.2.4.3.5,0,0,0,.5-.3.5Z"/>
          <path class="cls-8" d="M105.6,33.6c-.3,0-.5-.1-.8-.3-.2,0,0-.2-.2-.3-.2-.2,0-.5,0-.6.3,0,.5-.2.7-.3.1.1.4,0,.5,0,0,0,0,0,0,0h0c.3,0,.3.2.5.3.3.3,0,.6,0,.9-.2.1-.5.2-.8.2Z"/>
          <path class="cls-8" d="M107.5,48.5c-.3,0-.1.6-.5.4-.4-.2-.9-.4-.9-.9,0-.2-.2-.6.1-.6,0-.1.2-.2.2-.3.3.1.6,0,.8.2.1.3.5.6.5.9-.1,0-.3.1-.2.2Z"/>
          <path class="cls-1" d="M131.3,35.2l.2,1.9c-1.7.3-2.6,1-3.8,1.7,0,0,0,0,0-.1-1.3.5-2.6,1.1-3.9,1.5-1.3.5-2.3.8-3.2,1.9-.7.9-1,2-2.1,2.6-.6.3-1.4.5-2.2.5-.3,0-.5-.1-.8-.1-.5,0-.9-.2-1.3-.5-.1,0-.3-.2-.2-.4-.2-.2-.7-.3-.6-.7,0-.4-.3-.5-.3-.9-.2-.2,0-.4,0-.6,0-.3.3-.5.5-.8.4-.6,1-.9,1.6-1.3,0,.1.1,0,.2,0,0-.1.2-.2.3-.2,1.4-.1,2.7.6,4.1.6.8,0,2.1-.7,2.9-1.1.4.1.9-.3,1.3-.7,0,0,0,.2-.1.3,1.3-.5,2.2-1.7,3.4-2.3.9-.5,2.6-1.2,3.7-1.1M119.2,42.2s0,0-.1,0c0,0,0,0,0,0-.3.2-.5.4-.8.5-.7.2-1.1.4-1.8.4,0,0-.1,0-.2,0-.2,0-.6,0-.7,0,0,0,0,0,.1,0,0,0,0,0,0,0,.3,0,.5.2.7.2,0,0,0,0,.1,0,.2,0,.4.1.6,0,0,0,.3-.2,1-.3.2,0,.4-.3.6-.4.2-.2.3-.3.4-.5,0,0,0,0,.1-.1,0,0,0,0,0,0,0,0,0,0,.1,0Z"/>
          <path class="cls-9" d="M90,42.2c0,.2.2.5.2.8,0,.4,0,.7-.3.9-.2.2-.5.3-.8.3-.5,0-1-.2-1.3-.5-.3-.3-.4-.7-.5-1.2,0-.3,0-.6.1-.7h.3c0,.3-.1.5-.1.7,0,.3.1.6.4.9.3.3.7.4,1.1.4.6,0,.9-.3.9-.9,0-.2,0-.3,0-.4h-.9c0-.1,0,.4,0,.4h-.3s0-1,0-1l1.4.2Z"/>
          <path class="cls-9" d="M90,40.9c0,.3-.3.5-.6.4-.5,0-1-.4-.9-.8,0-.4.4-.4.6-.4.5,0,1,.4.9.8h0M90.3,41c0-.7-.5-1.2-1.2-1.3-.4,0-.9.2-.9.7,0,.7.5,1.2,1.2,1.3.5,0,.9-.2.9-.7h0Z"/>
          <path class="cls-9" d="M90.4,38.8c0,.3-.3.4-.7.3-.5-.1-.9-.5-.8-.9,0-.4.4-.4.7-.3.5.1.9.5.8.9h0M90.6,38.9c.2-.7-.4-1.3-1-1.4-.4,0-.9,0-1,.6-.2.7.3,1.3,1,1.4.5.1.9,0,1-.6h0Z"/>
          <path class="cls-9" d="M90.5,35.9c.4.2.6.7.5.9-.1.3-.4.3-.6.2-.5-.2-.9-.7-.7-1.2,0-.1.1-.2.2-.3l.6.4M88.7,34.8l.9.5c0,0-.1.2-.2.3-.3.7.2,1.4.9,1.7.4.1.8,0,.9-.3.1-.3,0-.6-.2-.9h0s.4.2.4.2v-.3c0,0-.3-.2-.5-.3l-2.1-1.3v.3Z"/>
          <path class="cls-9" d="M91.7,34.7c0,0,.2-.2.3-.3.1-.2,0-.4-.1-.5-.1,0-.3,0-.5,0-.2.1-.5.2-.6,0-.3-.2-.4-.6-.2-1,0-.2.2-.3.3-.3l.2.2c0,0-.2.1-.3.3-.1.2,0,.4,0,.5.1,0,.3,0,.4,0,.2-.1.5-.2.7,0,.4.2.4.6.2,1-.1.2-.3.3-.4.4l-.2-.2Z"/>
          <path class="cls-9" d="M92.7,33.6l-1-1.1c-.2-.2-.3-.3-.4-.4l.2-.2.3.3h0c-.1-.3,0-.6,0-.8.2-.3.4-.2.7-.1-.1-.3,0-.6,0-.9.1-.2.4-.3.7,0,0,0,.2.2.3.2l.8.9-.2.3-.8-.9c0,0-.1-.1-.2-.2-.2-.1-.3-.2-.5,0-.2.2-.1.6.2,1l.7.8-.2.3-.8-.9c0,0-.1-.1-.2-.2-.1-.1-.3-.2-.5,0-.2.2,0,.7.2,1l.7.8-.2.3Z"/>
          <path class="cls-9" d="M94.7,28.9c.2.2,0,.6-.4,1-.2-.3-.2-.7,0-.9.1-.1.3-.2.4,0h0M95.5,29.7c0,.1-.1.3-.3.5-.2.1-.3.2-.5.1-.1,0-.3-.2-.3-.3.6-.5.9-1,.5-1.4-.2-.2-.5-.2-.8,0-.5.5-.3,1.3.1,1.7.3.3.7.4,1.1,0,.2-.2.3-.4.4-.6l-.2-.2Z"/>
          <polygon class="cls-9" points="96.1 29.7 94.6 27 94.9 26.8 96.4 29.5 96.1 29.7"/>
          <polygon class="cls-9" points="96.8 29.1 95.5 26.4 95.8 26.1 97.1 28.9 96.8 29.1"/>
          <path class="cls-9" d="M97.8,28.5c-.1,0-.3,0-.3,0,0-.1,0-.3,0-.4.1,0,.3,0,.3,0,0,.1,0,.3,0,.4h0Z"/>
          <path class="cls-9" d="M100.5,26.8c-.1.1-.4.3-.7.5-.4.2-.7.2-1,0-.3-.1-.5-.4-.6-.6-.2-.4-.3-1,0-1.4.2-.4.5-.7.9-.9.3-.2.6-.2.7-.2v.3c-.1,0-.3,0-.6.2-.3.1-.5.4-.6.7-.1.3,0,.8,0,1.1.2.5.7.7,1.2.4.2,0,.3-.2.4-.3l-.2-.8-.5.3v-.3c0,0,.8-.4.8-.4l.4,1.3Z"/>
          <path class="cls-9" d="M101.7,26.3c-.3,0-.5,0-.6-.4-.1-.4,0-1.1.4-1.2.4-.1.6.2.6.4.1.5,0,1.1-.4,1.2h0M101.8,26.5c.7-.2.9-1,.7-1.6-.1-.4-.5-.7-1-.6-.6.2-.9.9-.7,1.6.1.4.5.7,1,.6h0Z"/>
          <path class="cls-9" d="M103.8,25.7c-.3,0-.5-.1-.6-.5,0-.5.1-1,.5-1.1.4,0,.5.2.6.5,0,.5-.1,1.1-.5,1.1h0M103.8,26c.7-.1,1-.9.9-1.5,0-.4-.4-.8-1-.7-.7.1-1,.8-.9,1.5,0,.5.4.8.9.7h0Z"/>
          <path class="cls-9" d="M106.5,24.6c0,.5-.4.8-.6.8-.3,0-.4-.2-.4-.5,0-.5.3-1.1.8-1.1.1,0,.3,0,.3,0v.7M106.8,22.6v1c-.2,0-.4,0-.5,0-.7,0-1.2.7-1.2,1.5,0,.4.3.7.7.7.3,0,.5-.2.7-.5h0s0,.4,0,.4h.3c0-.2,0-.5,0-.7l.3-2.4h-.4Z"/>
          <path class="cls-9" d="M109.4,25.7c-.1,0-.3,0-.6,0-.5,0-.8-.4-.7-.9,0-.7.6-1.3,1.4-1.2.2,0,.4,0,.4.1v.3c-.2,0-.3,0-.5-.1-.5,0-.9.4-1,.9,0,.3.1.6.5.6.2,0,.4,0,.5,0v.3Z"/>
          <path class="cls-9" d="M112.1,24.2l-.6,1.4c0,.2-.2.4-.2.6h-.3c0,0,.1-.4.1-.4h0c-.2.2-.5.3-.8.3-.3,0-.5-.2-.4-.7,0,0,0-.2.1-.3l.5-1.1h.3c0,0-.5,1.2-.5,1.2,0,.1,0,.2,0,.3,0,.2,0,.4.2.4.3,0,.6-.2.8-.6l.4-1h.3Z"/>
          <path class="cls-9" d="M111.8,26.3l.6-1.2c.1-.2.2-.5.3-.7h.3c0,.2-.1.4-.2.5h0c.2-.2.5-.4.8-.3,0,0,0,0,0,0l-.2.3s0,0,0,0c-.3,0-.7.2-.9.6l-.4.8h-.3Z"/>
          <path class="cls-9" d="M113.1,26.7l.7-1.1c.1-.2.3-.5.4-.6h.3c0,.2-.1.4-.2.5h0c.2-.2.5-.3.8-.2,0,0,0,0,0,0l-.2.3s0,0,0,0c-.3-.1-.7.1-.9.5l-.5.8h-.3Z"/>
          <path class="cls-9" d="M115.7,25.6l-.3,1.1c0,.2-.1.4-.2.5h0c.1,0,.2-.2.4-.3l1-.8.3.2-1.4,1c-.4.3-.8.5-1.1.6-.3,0-.6,0-.7,0v-.3c.2,0,.3,0,.5,0,.2,0,.4-.1.6-.2,0,0,0,0,0,0l.5-1.9.3.2Z"/>
          <path class="cls-9" d="M99.6,60.7c-.3,0-.8-.2-1.3-.4-.5-.2-.8-.6-1-1-.2-.4-.2-.9,0-1.4.1-.2.2-.4.4-.5.3-.2.6-.3,1-.3.3,0,.7.1,1,.3.4.2.7.4,1,.6l-.3.6h0c-.2-.3-.4-.5-.8-.6-.2,0-.3-.1-.5-.1-.2,0-.4,0-.6.1-.2,0-.3.2-.4.4-.1.3-.2.6,0,.8,0,.3.3.5.6.6.2.1.4.2.6.2.2,0,.4,0,.6,0l-.3.7Z"/>
          <path class="cls-9" d="M101.9,60.9c-.1.1-.3.2-.5.1-.4-.1-.5-.4-.3-1,0-.2.2-.4.3-.5.1-.1.3-.2.5-.1.2,0,.3.2.3.4,0,.2,0,.3,0,.6,0,.2-.2.4-.3.5M102.9,59.6c-.2-.3-.4-.5-.8-.6-.4-.1-.7-.1-1,0-.3.1-.5.4-.6.8-.1.4,0,.7,0,1,.2.3.4.5.8.6.4.1.7.1,1,0,.3-.1.5-.4.6-.8.1-.4,0-.7,0-1Z"/>
          <path class="cls-9" d="M106.4,62.1c-.3.1-.8.1-1.3,0-.5,0-.9-.2-1.2-.5-.3-.3-.5-.8-.4-1.3,0-.2,0-.4.2-.6.2-.3.5-.5.8-.7.3-.1.7-.1,1.1,0,.4,0,.8.1,1.1.2v.7c-.1,0-.2,0-.2,0-.2-.2-.5-.3-.9-.3-.2,0-.3,0-.5,0-.2,0-.4.2-.5.3-.1.2-.2.3-.2.5,0,.3,0,.6.2.8.2.2.4.3.7.4.2,0,.5,0,.7,0,.2,0,.4-.1.6-.2v.7Z"/>
          <path class="cls-9" d="M108.8,61.5c0,.2-.2.3-.4.3-.4,0-.6-.2-.6-.8,0-.2,0-.4,0-.6,0-.2.2-.3.4-.3.2,0,.4,0,.5.2,0,.1.1.3.2.5,0,.2,0,.4,0,.6M109.2,60c-.3-.2-.6-.3-1-.3-.4,0-.7.2-.9.4-.2.2-.3.6-.3,1,0,.4.2.7.4.9.3.2.6.3,1,.3.4,0,.7-.2.9-.4.2-.2.4-.6.3-1,0-.4-.2-.7-.5-.9Z"/>
          <rect class="cls-9" x="110.3" y="58.6" width=".8" height="3.3" transform="translate(-9.9 23.6) rotate(-11.6)"/>
          <path class="cls-9" d="M115,60.4c-.2.2-.6.4-1.2.6-.5.2-.9.2-1.4,0-.4-.2-.8-.5-.9-1,0-.2-.1-.4,0-.6,0-.4.2-.7.5-.9.2-.2.5-.4.9-.5.4-.1.8-.2,1.1-.3l.2.6h0c-.3,0-.6,0-1,.2-.2,0-.3.1-.4.2-.2.1-.3.3-.3.5,0,.2,0,.4,0,.6.1.3.3.5.6.6.3.1.5.1.8,0,.2,0,.4-.2.6-.3.2-.1.3-.3.4-.5l.2.7Z"/>
          <polygon class="cls-9" points="118.8 58.5 118.1 58.9 117.3 57.7 116 58.6 116.7 59.8 116.1 60.2 114.3 57.4 115 57 115.7 58.1 117 57.2 116.4 56.1 117 55.7 118.8 58.5"/>
          <rect class="cls-9" x="118.4" y="54.6" width=".8" height="3.3" transform="translate(-8 90.9) rotate(-40.6)"/>
          <path class="cls-9" d="M120.4,54.1c0,0-.1.2-.2.4,0,0,0,0,0,.1,0,0,0,0,0,.1l-.6-.6s0,0,.2-.2c0,0,.1-.1.1-.2.2-.2.4-.3.6-.1.2.1.2.3.2.4M121.5,53.7c-.2,0-.3,0-.5.1,0-.3,0-.6-.2-.8-.2-.2-.5-.3-.8-.1-.2,0-.4.3-.6.5,0,.1-.2.3-.4.5-.2.2-.3.4-.4.5l2.4,2.2c.2-.2.4-.4.7-.8.4-.4.6-.8.6-1,0-.4,0-.6-.3-.9-.1-.1-.3-.2-.5-.2M121.3,55.5c0,0-.1.1-.2.2l-.8-.7c0,0,.2-.2.3-.3.3-.3.6-.4.8-.1.3.3.2.6-.1,1Z"/>
          <path class="cls-9" d="M122.5,52.4l-.6-.8,1,.2-.4.6M121.3,50.7l-.4.7,2.2,2.8.4-.6-.5-.6.6-1,.8.2.5-.8-3.5-.6Z"/>
          <polygon class="cls-9" points="126.1 47.9 125.9 48.5 123.2 49.3 125.3 50.1 125.1 50.8 122 49.7 122.2 48.9 124.7 48.2 122.8 47.5 123 46.8 126.1 47.9"/>
          <polygon class="cls-9" points="123.6 43.4 125.3 45 126.6 45.2 126.5 46 125.1 45.8 123.1 46.6 123.2 45.7 124.7 45.2 123.4 44.3 123.6 43.4"/>
          <path class="cls-9" d="M125.4,42.9l-1-.4,1-.3v.7M123.5,42.1v.8s3.3,1.3,3.3,1.3v-.8s-.8-.3-.8-.3v-1.2s.7-.3.7-.3v-.9s-3.3,1.3-3.3,1.3Z"/>
        </g>
        <g class="cls-6">
          <polygon class="cls-3" points="272.8 193.3 271.8 196.8 271.2 200.5 269.9 203.9 268.9 207.5 267.7 211 266.4 214.4 265 217.9 263.1 221 261.7 224.5 259.8 227.6 258.2 231 256.4 234.2 254.2 237.3 251.9 240.2 249.2 242.7 246.7 245.5 244.1 248.1 241.4 250.6 239.9 254.5 240.9 258.5 243.3 261.3 246.2 263.8 248 267.2 250.5 269.9 252.5 273.1 254.2 276.4 256 279.6 257.7 283 259.1 286.4 259.9 290.1 260.7 293.7 260.8 296.7 258.7 298.9 255.8 300.1 252 300.2 248.3 299.8 244.5 299.6 240.7 299.8 236.9 299.9 233.1 299.9 229.2 299.7 225.4 299.5 221.8 298.2 220.5 294.5 219.8 290.9 220.5 287.3 220.2 283.6 220.4 280 220.2 276.3 219.8 272.7 220.1 269.1 220.5 265.4 220.5 261.8 220.5 258.1 220.3 254.5 220.2 250.9 220 247.3 220.4 243.6 219.9 240 220.4 236.3 220 232.7 220.3 229 220.5 225.4 220.4 221.7 220.1 218 220.2 214.4 219.8 210.7 220 207.1 220.1 203.4 219.8 199.7 219.9 196 220.3 192.4 221.7 188.7 225.4 186.8 228.9 186.8 232.4 187.5 235.9 187.5 239.4 186.8 242.9 187.2 246.4 187 249.9 187 253.4 187.1 256.9 187 260.4 187.4 264 187.5 267.5 186.8 270.2 188.2 272 190.4 272.8 193.3"/>
          <polygon class="cls-3" points="312.1 193.2 312.9 196.8 313.3 200.5 315 203.9 316 207.4 317.2 210.9 318.8 214.3 319.8 217.8 321.1 221.3 322.8 224.6 324.6 227.8 326.6 231 328.6 234.1 330.6 237.3 332.8 240.3 335.1 243.2 338 245.5 340.3 248.5 343.2 250.8 345.5 254.4 343.8 258.4 341.1 261 338.5 263.8 336.3 266.7 334.3 270 332.4 273.2 330.6 276.4 328.6 279.6 327 282.9 326.1 286.6 324.4 289.9 323.9 293.7 323.9 296.7 326.2 298.6 328.9 299.5 332.7 299.7 336.5 299.9 340.3 299.5 344.1 299.6 347.9 300 351.7 299.5 355.5 299.6 359.3 299.6 362.8 298 364.4 294.5 364.7 290.9 364.6 287.3 364.3 283.6 364.2 280 365 276.3 364.2 272.7 364.3 269.1 364.2 265.4 364.6 261.8 364.7 258.1 364.8 254.5 364.9 250.9 364.4 247.3 364.6 243.6 364.9 240 364.9 236.3 364.3 232.7 364.2 229 364.6 225.4 364.4 221.7 364.4 218 364.7 214.4 364.3 210.7 364.4 207.1 364.9 203.4 364.9 199.7 365 196 364.8 192.4 363.3 188.4 359.3 187.4 355.9 187.1 352.4 187.3 348.9 187.2 345.4 187 341.9 187.1 338.4 187.3 334.9 187.2 331.4 186.9 327.9 186.9 324.3 186.7 320.8 187.2 317.3 187.4 314.5 188.2 312.3 190.2 312.1 193.2"/>
        </g>
      </g>
    </g>
  </g>
</svg>