<?xml version="1.0" encoding="UTF-8"?>
<svg xmlns="http://www.w3.org/2000/svg" version="1.1" viewBox="0 0 74 67.2">
  <defs>
    <style>
      .cls-1 {
        fill: #ffd800;
      }

      .cls-2 {
        fill: none;
        stroke: #fee293;
        stroke-linecap: round;
        stroke-linejoin: round;
        stroke-width: 1.9px;
      }

      .cls-3 {
        fill: #fffbda;
      }

      .cls-4 {
        fill: #ea5514;
      }

      .cls-5 {
        fill: #52af52;
      }
    </style>
  </defs>
  <!-- Generator: Adobe Illustrator 28.6.0, SVG Export Plug-In . SVG Version: 1.2.0 Build 709)  -->
  <g>
    <g id="_レイヤー_1" data-name="レイヤー_1">
      <g>
        <g>
          <polygon class="cls-5" points="22.7 41.1 24.2 39.4 24.2 37.6 24.3 35.7 24.3 33.9 24.3 32 24.3 30.2 24.1 28.3 23.7 26.5 23.5 24.7 22.9 22.9 22.4 21.1 21.8 19.4 21.2 17.7 20.4 16.7 19 16.6 18.2 17.7 18.1 18.9 18.6 20.8 19.4 22.5 19.6 24.3 20.1 26.1 20.3 28 20.7 29.8 20.9 31.7 20.7 33.5 20.7 35.4 20.8 37.2 20.5 39.1 21.1 40.4 22.3 41 22.7 41.1"/>
          <polygon class="cls-5" points="7.5 27.1 8.9 28.5 10.6 29.4 12.6 29.3 13.2 29.6 14 31.4 15.4 32.7 17.2 33.1 17.9 33.4 18.3 35 19.1 36.4 20 37.8 20.9 39.2 22.3 40.2 22.9 40 24.3 39.2 25.5 38 26.2 36.5 27 35 27.5 33.4 28 33.1 29.8 32.6 31.3 31.4 31.8 29.6 32.7 29.1 34.6 29.5 36.4 28.6 37.7 27.1 38.3 27 39.9 27.5 41.6 27.9 43.3 28 44.9 28.4 45.3 29.1 44.6 30.8 43.8 32.5 43.6 34.4 43 34.8 41 35 39.1 35.6 38.1 37.4 37.6 37.7 35.8 37.9 34.3 38.6 33.1 39.9 32.5 40.4 30.7 40.2 28.9 40.2 27.2 40.9 25.7 42 24.2 43 23.2 44.5 22.1 44.5 21 43.1 19.6 41.9 18 40.9 16.4 40.1 14.5 40.1 12.7 40.3 12 39.9 11.1 38.4 9.4 37.9 7.7 37.9 7.1 37.4 6.1 35.7 4.2 35.1 2.3 35 1.8 34.4 1.5 32.5 .9 30.7 0 29.1 .3 28.3 2 28.1 3.6 27.8 5.3 27.4 6.8 26.8 7.5 27.1"/>
          <g>
            <polygon class="cls-3" points="6.4 14.1 6.9 15.9 7.5 17.6 8.2 19.3 9.2 20.8 10.5 22.1 11.9 23.3 13.4 24.3 15.2 24.8 17 25.2 18.8 25.5 20.6 25.3 22.4 24.8 24.2 24.3 25.8 23.6 27.4 22.8 28.7 21.4 30 20.1 30.9 18.5 31.6 16.8 31.8 15 32.2 13.2 31.9 11.4 31.7 9.6 31.1 7.9 30.3 6.2 29.4 4.7 28.2 3.3 26.8 2.1 25.2 1.3 23.4 .7 21.6 .4 19.8 .2 18 0 16.1 .3 14.4 1 12.8 1.9 11.3 2.8 9.7 3.8 8.7 5.4 7.6 6.9 6.9 8.6 6.6 10.4 6.3 12.2 6.4 14.1"/>
            <line class="cls-2" x1="20.3" x2="20.4" y2="2.3"/>
            <line class="cls-2" x1="26.6" y1="2.3" x2="25.4" y2="4.2"/>
            <line class="cls-2" x1="30.9" y1="7.4" x2="28.8" y2="8.2"/>
            <line class="cls-2" x1="32" y1="14" x2="29.8" y2="13.5"/>
            <line class="cls-2" x1="29.7" y1="20.2" x2="27.8" y2="18.8"/>
            <line class="cls-2" x1="24.7" y1="24.3" x2="23.7" y2="22.3"/>
            <line class="cls-2" x1="18.1" y1="25.4" x2="18.4" y2="23.2"/>
            <line class="cls-2" x1="11.8" y1="23.1" x2="13.3" y2="21.3"/>
            <line class="cls-2" x1="7.7" y1="18.1" x2="9.8" y2="17.2"/>
            <line class="cls-2" x1="6.6" y1="11.6" x2="8.9" y2="11.7"/>
            <line class="cls-2" x1="9" y1="5.2" x2="10.8" y2="6.5"/>
            <line class="cls-2" x1="13.9" y1="1.2" x2="14.8" y2="3.3"/>
          </g>
        </g>
        <g>
          <polygon class="cls-5" points="49.2 63.1 47.7 61.5 47.5 59.5 47.2 57.6 47.5 55.6 47.4 53.6 47.4 51.6 48 49.7 48 47.7 48.3 45.7 48.7 43.8 49.5 41.9 50 40.1 50.7 38.2 51.6 37 53.1 37.2 54.3 38.1 54.1 39.6 53.4 41.5 52.7 43.4 52.6 45.4 51.9 47.3 51.8 49.3 51.3 51.2 51.3 53.2 51 55.2 51.4 57.2 51 59.2 51.4 61.1 50.7 62.5 49.5 63 49.2 63.1"/>
          <polygon class="cls-5" points="65.8 48.7 64.3 50.2 62.5 51.1 60.5 50.8 59.8 51.4 58.9 53.2 57.3 54.3 55.5 54.8 54.7 55.4 54.3 57.6 53 59.4 51.8 61.2 50 62.5 49.3 62.5 47.7 61.1 46.2 59.4 45.2 57.5 44.5 55.4 43.9 54.9 42 54.4 40.5 53.2 39.6 51.4 38.9 50.7 36.9 51 35 50.2 33.6 48.7 32.8 48.4 31.1 48.9 29.4 49.6 27.7 49.7 25.9 50 25.3 50.9 26.3 52.6 26.9 54.4 27.4 56.3 28 56.9 30.1 57 31.9 57.9 33 59.6 33.9 60.3 35.6 60.2 37.2 61 38.3 62.4 39.1 62.6 41 62.6 42.9 62.8 44.7 63.6 46.4 64.5 47.9 65.7 49.1 67.2 50.1 67.1 51.5 65.7 53 64.6 54.6 63.5 56.4 62.8 58.3 62.4 60.3 62.7 61.1 62.4 62.1 60.9 63.7 60.3 65.5 60.1 66.2 59.6 67.4 57.8 69.3 57 71.4 56.9 72 56.3 72.2 54.4 73.1 52.6 74 50.9 73.5 50.1 71.7 49.7 69.9 49.5 68.2 49 66.5 48.5 65.8 48.7"/>
          <g>
            <path class="cls-1" d="M41,37l-.6,1.8.3,2.3,1.8,1.4,2.1.8,2.6-.5.8,1.8,1.5,1.4,1.9.6,2-.4,1.7-1,1.1-1.4,2.5.7,2.2-.2,1.8-1.4,1-2-.5-1.9,2-.5,1.6-1.2.7-1.9-.4-2-1.3-1.5-1.9-.8.9-1.8-.6-2.2-1.6-1.6-2.2-.4-2.6.3-.9-1.7-1.4-1.3-1.9-.5-1.9.2-1.9.7-1,1.6-2.5-.5h-2.2c0,0-1.9,1.3-1.9,1.3l-.8,2.1.5,2-2.1.3-1.4,1.5-.7,1.8.4,1.9,1.3,1.4,1.7,1Z"/>
            <polygon class="cls-4" points="48.8 33.5 49.1 35.3 50.6 36.4 52.2 37 54 36.9 55.6 35.9 56.3 34.2 55.9 32.4 54.5 31.1 52.7 30.7 51 31 49.6 32 48.8 33.5"/>
          </g>
        </g>
      </g>
    </g>
  </g>
</svg>