<?xml version="1.0" encoding="UTF-8"?>
<svg xmlns="http://www.w3.org/2000/svg" version="1.1" viewBox="0 0 80 75.6">
  <defs>
    <style>
      .cls-1 {
        fill: #00863c;
      }

      .cls-2 {
        fill: #009844;
      }

      .cls-3 {
        fill: #8dc21f;
      }
    </style>
  </defs>
  <!-- Generator: Adobe Illustrator 28.6.0, SVG Export Plug-In . SVG Version: 1.2.0 Build 709)  -->
  <g>
    <g id="_レイヤー_1" data-name="レイヤー_1">
      <g>
        <polygon class="cls-3" points="17.4 2.8 15.8 4.7 14.2 6.9 13.8 9.5 14 12.2 14.7 14.7 15.9 17.1 17.5 19.1 18.9 20.7 19 22.9 19.4 25 19.5 25.9 19.6 28.4 20.3 30.8 21.3 33.2 22.9 35.1 25 36.6 26.7 38.4 29.1 39.5 31.5 40.4 34.1 41.1 36.5 42.3 38.8 43.7 40.1 46 41.1 47.6 42.2 49.6 43.3 51.6 44.6 53.4 46.1 55.1 48 56.4 50.4 57.7 53 58.6 55.8 58.6 58.5 58.3 61 58.8 63.5 59.2 65.2 61.1 67.2 62.8 68.6 65 70.1 67.1 71.6 69.2 73.3 70.4 75.4 70.2 77.7 68.6 79.3 66.3 80 64.2 78.8 62.3 76.9 60.6 74.8 59.1 72.7 57.5 71 55.6 69.5 53.5 69.6 53.4 68.9 50.9 69.5 48.5 69.5 46.2 69.6 44 69.6 41.7 68.8 39.5 67.7 37.5 67.3 35.8 65.6 34.1 63.6 32.6 61.7 31.3 59.9 29.5 58.1 28.9 56.3 26.9 54.6 24.9 53.8 22.3 52.9 19.8 52.2 17.2 51.8 14.7 50.3 12.6 48.4 10.9 46.8 9 44.5 8 42.2 7.1 39.8 6.2 39 6.5 36.9 5.9 34.8 5.5 33.1 4.2 31.2 2.5 29.2 .9 26.7 .5 24.2 0 21.6 0 19.1 .9 17.4 2.8"/>
        <polygon class="cls-2" points="2.2 22 .8 24.2 0 26.7 .6 29.3 .9 31.9 2.2 34.3 3.9 36.2 5.7 38.1 7.3 39.6 8.4 41.3 8.9 43.4 8.9 44.3 10.1 46.5 11.4 48.7 12.9 50.6 14.7 52.4 17 53.4 19.1 54.9 21.6 55 24.2 55.3 26.8 55.6 29.3 56.5 31.8 57.3 33.4 59.4 34.6 60.8 36 62.6 37.9 64 39.3 65.8 41.5 66.6 43.6 67.5 46.2 68.2 48.9 68.1 51.6 67.8 54.2 67 56.6 66.7 58.9 67 61.3 68.1 63.3 69.6 65.5 70.9 67.3 72.8 69 74.7 71.1 75.6 73.1 74.7 74.7 72.4 76.2 69.9 75.9 67.2 74.5 66.2 72.1 65.3 69.9 64 67.6 62.8 65.7 61 64 59.2 62.5 57.2 62.3 54.7 62.4 52.4 61.9 50.1 60.6 48.2 59.6 46.2 58.6 44.1 56.7 42.8 55 41.5 53.1 40.3 51.1 39.3 49 38.5 47.3 37.7 44.7 36.9 43.1 34.7 41.5 32.6 40 30.4 39.2 27.8 37.7 25.8 36.1 23.8 33.8 22.8 31.7 21.5 29.5 20.2 27 19.8 24.5 20.1 23.7 20.5 21.6 20.4 19.6 20.1 17.8 19.2 15.5 18.1 13 17.5 10.5 17.6 7.9 17.2 5.4 18.1 3.4 19.8 2.2 22"/>
        <polygon class="cls-1" points="52.6 61.3 50.8 60.1 49 58.8 47.8 56.6 45.8 55.2 44.1 53.5 41.9 52.3 39.9 51 37.7 49.9 35.4 49.2 33.3 47.9 31.2 46.9 28.9 45.9 27.1 44.3 25.3 42.8 24 40.8 22.1 39.2 20.9 37.2 19.5 35.2 19.6 31.8 21.7 33.7 23.6 35.3 24.8 37.5 26.9 38.9 28.6 40.6 30.5 42 32.6 43.3 34.9 44.3 36.8 46.2 39.1 47.4 41.4 48.7 43.7 49.8 45.9 51.2 48.1 52.7 49.9 54.6 51.4 56.7 52.7 58.8 52.6 61.3"/>
      </g>
    </g>
  </g>
</svg>