<?xml version="1.0" encoding="UTF-8"?>
<svg xmlns="http://www.w3.org/2000/svg" version="1.1" viewBox="0 0 353 425.5">
  <defs>
    <style>
      .cls-1 {
        fill: #00863c;
      }

      .cls-2 {
        fill: #e46022;
      }

      .cls-3 {
        fill: #ffe200;
      }

      .cls-4 {
        fill: #009844;
      }

      .cls-5 {
        isolation: isolate;
      }

      .cls-6 {
        mix-blend-mode: multiply;
      }

      .cls-7 {
        fill: #6d3673;
      }

      .cls-8 {
        fill: #a5609e;
      }

      .cls-9 {
        fill: #ed7836;
      }

      .cls-10 {
        fill: #fff;
      }

      .cls-11 {
        fill: #eddfae;
      }

      .cls-12 {
        fill: #fcd25b;
      }

      .cls-13 {
        fill: #00a85f;
      }

      .cls-14 {
        fill: #b4b4b5;
      }

      .cls-15 {
        fill: #8dc21f;
      }

      .cls-16 {
        fill: #bd8943;
      }
    </style>
  </defs>
  <!-- Generator: Adobe Illustrator 28.6.0, SVG Export Plug-In . SVG Version: 1.2.0 Build 709)  -->
  <g class="cls-5">
    <g id="_レイヤー_1" data-name="レイヤー_1">
      <g>
        <g>
          <g>
            <g>
              <polygon class="cls-8" points="178.9 104.1 176.4 106.8 173.4 108.7 170.6 111 168.2 113.7 165.4 116 163.5 119.1 160.7 121.5 158.7 124.5 156.2 127.2 154.3 130.2 152.6 133.5 151 136.7 149.9 140.2 149.1 143.7 148.7 147.3 148.5 150.9 149 154.4 149.7 157.9 150.2 161.5 151.9 164.7 154.3 167.4 156 170.7 158.6 173.2 161.1 175.8 164.3 177.7 167 180.1 170.3 181.7 173.6 183.2 177.2 183.9 180.7 184.4 184.3 184.8 187.9 184.2 191.5 184 195 182.9 198.2 181.1 201.7 180.3 204.7 178.2 207.6 176.1 210.8 174.5 213.3 171.8 216.1 169.6 219.1 167.5 221.6 164.9 223.6 161.9 225.8 159 228.4 156.4 230.4 153.5 232.1 150.3 234.1 147.3 235.5 144 237.3 140.8 238.9 137.6 240.1 134.2 241.9 131.1 242.9 127.6 244 124.2 245.5 121 246.6 117.6 247.7 114.1 248.4 110.6 249 107.1 249.6 103.5 250.7 100.1 251 96.5 251.6 93 252 89.4 252.3 85.8 252.3 82.3 252.3 78.7 252.3 75.1 252.7 71.5 252.1 67.9 252.2 64.3 252.5 60.7 251.7 57.2 251.1 53.7 251 50.1 250.6 46.6 250.7 43 250.2 39.5 249.4 36 245.8 35.6 242.2 36.4 238.5 36.2 234.9 36.6 231.2 36.4 227.6 36.1 223.9 36.3 220.3 36.7 216.6 36.2 212.8 36 212.1 40 210.9 43.5 209.6 46.9 209 50.5 207.7 53.9 206.8 57.5 205.8 61.1 204.3 64.4 202.7 67.7 201.7 71.3 200.1 74.6 198.9 78.1 197.2 81.4 195.1 84.5 193.2 87.6 191.2 90.7 189.3 93.8 186.9 96.6 184.4 99.3 181.9 102 178.9 104.1"/>
              <polygon class="cls-7" points="234.8 18.8 230.4 18.3 226.4 18.6 226.3 15 225.7 11.3 226.3 7.6 226 4 225.4 .2 228.8 0 231.9 .7 235.1 .3 235 3.9 234.8 7.6 234.7 11.2 234.4 14.9 234.8 18.8"/>
              <polyline class="cls-7" points="230.4 13.2 234.1 12.9 237.6 13.8 240.8 15.6 243.7 17.6 246.2 20.1 248.2 23.1 250.4 26 250.8 29.7 251.9 33.1 253.9 36.4 257.3 38.4 260.6 40.9 260.7 43.9 257.1 44.8 253.4 45.3 249.7 45.1 246.4 43.2 242.9 42.9 239.3 44.4 237 47.7 234.1 50.5 230.6 52.2 227.3 50.2 224.6 47.4 221.7 44.6 218.3 42.7 214.8 43.8 211.2 44.5 207.7 45.3 204.1 44.7 200.6 43.6 200.3 40.7 204 39.1 207.5 36.9 209.3 33.3 210.1 29.8 210.6 26.2 212.3 23 214.5 20.1 217.3 17.9 220 15.6 223.3 14.4 226.8 13.5 230.4 12.7"/>
            </g>
            <g>
              <polygon class="cls-15" points="346.9 53.4 346.1 52.2 344.9 51.8 344 50.8 342.8 50.3 341.7 49.7 340.4 49.4 339.2 48.8 337.9 48.5 336.6 48.5 335.3 48.6 334.1 48.6 332.8 48.5 331.6 49 330.3 49.2 329.1 49.5 327.8 49.7 326.5 50 325.3 50.4 324.2 51.1 323.1 51.7 321.8 52 320.8 52.8 319.7 53.4 318.8 54.4 317.7 55 316.7 55.9 315.7 56.8 314.8 57.7 313.9 58.8 312.7 59.3 311.4 59.4 310.1 60 308.8 60.2 307.5 60.3 306.2 60.5 304.7 60.6 303.4 60.7 302.1 60.8 300.9 61.4 299.5 61.4 298.3 61.9 297.1 62.4 296 63.1 294.8 63.6 293.8 64.4 292.6 65.1 291.7 66 290.6 66.6 289.6 67.5 288.7 68.4 287.6 69.2 287 70.4 286.2 71.3 285.3 72.3 284.4 73.3 283.9 74.5 283.1 75.5 282.7 76.8 282.1 78 281.6 79.2 281.4 80.5 281.1 81.7 281.1 83 280.5 84.2 280.1 85.4 280.1 86.7 279.6 88 279 89.1 278.6 90.3 278.1 91.5 277.6 92.7 277.2 93.9 276.7 95 276.2 96.2 275.1 97.1 274.5 98.2 273.5 99 272.6 99.9 271.7 100.7 270.5 101.4 269.5 101.9 268.5 102.5 267.7 103.3 266.5 103.8 265.4 104.7 264.2 105.3 263.3 106.2 262.2 107 260.9 107.4 260.1 108.4 259.2 109.4 258 110 257.1 111 256.5 112.2 255.4 113 254.5 114 254.2 115.3 253.2 116.3 252.8 117.6 252 118.6 251.6 119.8 251.1 121 250.8 122.2 250.6 123.5 250.2 124.7 249.8 125.9 249.7 127.2 249.4 128.5 249.5 129.7 249.5 131 249.7 132.3 249.8 133.5 250 134.8 249.9 136.1 250.3 137.3 250.5 138.6 250.6 139.9 250.9 141.2 250.5 142.5 250.3 143.8 250.1 145 249.7 146.3 248.8 147.2 247.9 148.1 247.1 149.1 246.3 150 245.8 151.2 244.8 152 243.9 152.9 243.1 153.8 242.2 154.7 241.4 155.7 240.4 156.4 239.5 157.3 238.6 158.1 237.8 159.1 236.6 159.6 235.9 160.7 234.9 161.5 234 162.4 232.9 163 232 163.9 231.3 165 230.8 166.2 231 167.5 231.2 168.7 231.9 169.7 232.4 170.9 233.4 171.7 234 172.9 235 173.7 236.1 174.4 237.2 175.2 238.2 175.9 239.2 176.7 240.4 177.2 241.7 177.4 242.9 176.8 244.1 176.3 245.4 175.9 246.1 174.8 246.9 173.8 247.8 172.8 248.5 171.7 249.1 170.5 250.2 169.7 250.8 168.5 251.5 167.4 252.3 166.4 253.2 165.4 254 164.3 255 163.4 256.1 162.7 256.7 161.4 257.8 160.7 258.7 159.7 259.5 158.6 260.7 158 261.7 157.1 261.5 156.9 262.8 156.3 264 156 265.3 155.3 266.6 155.6 267.9 155.6 269.3 155.3 270.6 155.5 271.9 155.7 273.2 155.6 274.4 155.5 275.7 155.6 277 155.7 278.3 155.4 279.6 155.5 280.9 155.2 282.1 154.9 283.3 154.3 284.5 153.8 285.8 153.5 286.9 153 288.1 152.5 289.4 152 290.3 151.1 291.7 150.3 293.2 149.7 293.9 148.6 295 148 295.9 147.1 296.8 146.1 297.7 145.2 298.4 144.1 299.3 143.2 299.8 142 300.7 141.1 301 139.8 301.8 138.8 302.4 137.7 303 136.5 303.7 135.5 304 134.3 304.6 133.3 305.3 132.4 305.7 131.1 306.3 130 307.4 129.2 308.2 128.2 308.9 127.1 310.2 126.6 311.1 125.6 312.1 124.9 313.3 124.2 314.6 124 315.7 123.2 316.9 122.7 318 122.1 319.2 121.7 320.4 121.3 321.7 121 323 120.6 324.2 120.3 325.4 119.6 326.7 119.4 327.8 118.8 329 118.2 330.2 117.8 331.3 117 332.2 116.2 333.1 115.2 334.3 114.6 335.1 113.6 336.2 112.8 337 111.8 337.8 110.8 338.3 109.5 339.3 108.6 339.9 107.5 340.6 106.4 341.1 105.2 341.5 104 341.9 102.8 342.5 101.6 342.7 100.3 342.9 99 343.5 97.8 343.5 96.5 343.5 95.3 343.5 93.7 343.7 92.4 343.6 91.1 343.5 89.8 343.9 88.6 344.1 87.3 344.8 86.2 345.5 85.1 346 83.9 346.9 82.9 348 82.2 348.3 80.8 349.3 80 349.7 78.8 350.5 77.7 350.9 76.5 351.4 75.4 352 74.2 352 72.9 352.3 71.7 352.4 70.4 352.7 69.2 353 67.9 353 66.7 352.7 65.4 352.9 64.2 352.6 62.9 352.2 61.7 351.8 60.5 351.4 59.3 351 58.1 350.3 57.1 349.5 56.1 348.7 55.1 347.9 54.1 346.9 53.4"/>
              <polygon class="cls-4" points="309.4 28.1 308.3 27.5 307.2 26.8 305.9 26.5 304.6 26.3 303.4 26.1 302.1 25.7 300.8 25.5 299.5 25.7 298.2 25.8 297 26.3 295.8 26.6 294.6 26.9 293.2 26.9 292.2 27.8 290.9 28.1 289.9 28.9 288.6 29.4 287.5 30 286.6 31 285.5 31.6 284.8 32.8 283.8 33.6 282.7 34.3 282 35.5 281.3 36.5 280.6 37.6 279.8 38.6 278.8 39.6 278.2 40.8 277.2 41.7 275.9 42 274.8 42.9 273.5 43.3 272.3 43.7 271 44.1 269.5 44.6 268.3 45.1 267.1 45.5 266 46.1 264.9 46.9 263.7 47.4 262.6 48.1 261.6 48.9 260.7 49.9 259.7 50.6 258.8 51.6 257.9 52.6 257.1 53.5 256.3 54.6 255.6 55.7 255 56.8 254.3 57.9 253.9 59.1 253.3 60.3 252.8 61.4 252.1 62.6 251.9 63.9 252 65.2 251.6 66.4 251.5 67.7 251.5 69 251.2 70.3 251.5 71.6 251.2 72.8 251.4 74.1 251.3 75.4 251.2 76.6 251.2 77.9 250.9 79.1 250.6 80.4 250.4 81.6 250.6 83 250 84.1 249.6 85.3 249.3 86.6 248.4 87.5 248 88.8 247.1 89.7 246.4 90.7 245.5 91.6 244.8 92.6 243.8 93.2 243 94 242.2 95 241.1 95.8 240.3 96.8 239.4 97.8 238.4 98.7 237.6 99.7 236.9 100.8 236 101.7 235.2 102.8 234.4 103.8 233.9 105.1 233.2 106.2 232.8 107.4 232.2 108.6 232 109.9 231.7 111.2 231.2 112.3 231.3 113.6 231.1 114.9 231 116.1 231 117.4 230.6 118.6 230.8 119.9 231.2 121.1 231 122.4 231.2 123.7 231.5 124.9 232 126.1 232.2 127.3 232.8 128.5 233.2 129.6 233.9 130.7 234.2 132 234.8 133.1 235.2 134.4 235.4 135.6 235.8 136.9 235.6 138.2 235 139.4 234.5 140.5 234.3 141.9 233.5 143 233 144.1 232.2 145.2 231.6 146.4 231 147.5 230.2 148.6 229.4 149.6 228.9 150.9 228.2 152 227.3 152.9 226.7 154.1 226.1 155.3 225.1 156.2 224.4 157.3 223.5 158.3 222.6 159.2 222 160.4 221.4 161.6 221.3 162.9 221.6 164.2 222.5 165.2 223.1 166.3 224.2 167 225.3 167.7 226.4 168.3 227.3 169.3 228.6 169.5 229.7 170.2 231 170.5 232.2 170.9 233.4 171.2 234.5 171.1 235.7 170.6 236.6 169.9 237.7 169 238.4 167.7 239.2 166.6 239.3 165.2 240 164.1 240.8 163 241 161.7 241.7 160.6 242.3 159.4 242.9 158.3 243.4 157.1 244.1 156 244.7 154.8 245.4 153.7 246.1 152.6 246.6 151.4 247.2 150.2 248.3 149.3 248.7 148.1 249.4 147 250.5 146.1 251.6 145.3 252.8 144.6 254.2 144.5 255.5 144.1 256.8 144 258.1 143.5 259.4 143.4 260.7 143.1 261.9 142.8 263.2 142.6 264.5 142.3 265.7 141.8 266.9 141.4 268.1 140.9 269.3 140.4 270.4 139.7 271.4 138.8 272.5 138.2 273.6 137.4 274.8 136.8 275.5 135.7 276.8 135.2 277.5 134 278.4 133.1 279.3 132.2 280 131.1 280.6 129.9 281.5 129 282.1 127.8 282.7 126.6 283.1 125.4 283.7 124.2 284.1 123 284.3 121.7 285.1 120.6 285.2 119.3 285.6 118.1 285.9 116.8 286.3 115.7 286.3 114.6 286.8 113.5 287.3 112.3 287.7 111.1 288.2 109.9 288.6 108.7 289.3 107.6 290.1 106.5 291.2 105.8 292.2 105 292.9 103.9 294.1 103.3 295.1 102.5 296 101.5 297 100.7 298.1 100.1 299.2 99.3 300.5 99 301.4 98 302.6 97.4 303.6 96.6 304.9 96.2 305.9 95.4 307 94.7 307.8 93.7 308.8 92.9 309.5 91.8 310.6 91 311.4 90 311.9 88.8 312.4 87.6 313.2 86.5 313.9 85.5 314.4 84.3 314.7 83 315.3 81.9 315.6 80.6 315.8 79.3 316 78 316 76.8 316.4 75.5 316.3 74.2 316.6 72.9 316.4 71.6 316.3 70.4 315.9 69.1 315.4 67.7 315.5 66.3 314.8 65.2 314.6 63.9 314.8 62.6 314.8 61.4 314.7 60.1 315.3 58.9 316.1 57.8 316.6 56.7 317.1 55.5 317.4 54.3 317.9 53.2 318.2 52 318.4 50.7 318.6 49.5 318.7 48.3 319 47 319 45.8 319 44.5 319.1 43.3 318.9 42.1 319 40.8 318.5 39.6 318 38.5 317.7 37.2 317.3 36 316.7 34.9 316 33.8 315.3 32.8 314.5 31.8 313.7 30.8 312.6 30.1 311.6 29.4 310.5 28.8 309.4 28.1"/>
              <polygon class="cls-1" points="244.8 126.5 244.4 125.2 244.9 123.9 245.9 122.9 246.9 122.1 247.9 121.1 249 120.3 249.9 119.5 250.8 118.5 251.8 117.7 252.7 116.8 253.4 115.7 254.2 114.7 255 113.7 255.6 112.6 256.3 111.5 257.1 110.5 257.6 109.3 258.4 108.3 258.8 107 259.2 105.8 260 104.8 260.6 103.7 261 102.5 261.3 101.2 261.8 100 262.3 98.8 263.1 97.8 263.4 96.5 263.7 95.3 264.4 94.2 264.7 92.9 265.1 91.7 265.5 90.5 266.2 89.4 266.7 88.2 267.1 86.9 267.7 85.8 268.3 84.6 268.8 83.4 269.2 82.2 269.9 81.1 270.5 79.9 271.5 79 271.9 77.7 272.6 76.6 273.6 75.7 274.3 74.6 275 73.5 275.9 72.6 276.9 71.7 277.6 70.6 278.6 69.7 279.7 69 280.6 68 281.5 67.1 282.5 66.3 283.8 65.8 284.6 64.7 285.7 64.1 286.9 63.5 287.8 62.5 289 62 290.2 61.6 291.5 61.4 292.8 61.2 293.7 61.9 293.9 63 293.8 64.2 293 65.1 292 65.9 291 66.5 290 67.4 289 68.2 287.9 69 287.1 70 285.9 70.6 285.2 71.8 284.3 72.7 283.5 73.7 282.7 74.8 281.9 75.8 280.9 76.7 280.2 77.8 279.4 78.9 279 80.1 278.1 81.1 277.7 82.4 276.8 83.3 276.3 84.6 275.6 85.7 274.8 86.8 274.4 88 274 89.3 273.4 90.4 272.8 91.6 271.9 92.6 271.3 93.7 271 95 270.3 96.1 269.8 97.2 269.4 98.5 269 99.7 268.5 100.9 267.6 101.9 267.1 103 266.9 104.4 266.1 105.4 265.6 106.6 265.1 107.8 264.5 108.9 264.1 110.2 263.4 111.3 262.4 112.2 262 113.4 261.3 114.5 260.5 115.5 259.8 116.6 258.9 117.6 258 118.5 257.4 119.6 256.5 120.5 255.7 121.6 254.5 122.1 253.7 123.2 252.6 123.9 251.7 124.7 250.7 125.5 249.7 126.4 248.5 126.9 247.2 127.1 246 126.9 244.8 126.5"/>
            </g>
            <g>
              <g>
                <polygon class="cls-12" points="135.6 165.1 139.2 165.4 142.8 166.1 146.4 165.3 150 165.8 153.6 165.5 157.2 165 160.7 164.3 164.3 163.6 167.8 162.7 171.1 161.4 174.4 159.8 177.7 158.4 180.7 156.4 183.7 154.5 186.6 152.3 189.2 149.8 191 146.7 193.2 143.8 195.1 140.9 196.5 137.6 197.9 134.2 198 130.6 198.6 127.1 198.9 123.5 198.8 119.9 198 116.4 197.5 112.9 196 109.6 194.3 106.4 193.1 103 190.8 100.2 188.3 97.6 186.2 94.7 183.3 92.6 180.6 90.2 177.4 88.5 174.4 86.6 171.1 85.1 167.6 84.2 164.6 82.4 161.9 80.1 159.3 77.7 157.7 74.5 156.6 71.1 156.8 67.6 156.7 64.1 157.7 60.7 159 57.3 156.3 59.2 153.7 61.1 150.8 62.5 148 64 145.8 61.1 143.5 58.2 141.8 55.2 139.7 57.7 137.5 60.3 135.8 63.6 132.7 61.7 129.9 59.8 127 57.9 124.5 55.6 125.1 59 126.2 62.4 125.8 65.9 124.8 69.2 123.5 72.4 121.8 75.5 119.3 78 116.2 79.7 112.7 80.5 109.5 81.9 106.1 83.3 102.7 84.3 99.4 85.6 96.3 87.6 93.3 89.5 90.6 91.9 87.9 94.2 85.8 97.2 83.6 100.1 82 103.3 80.5 106.5 79 109.8 78.4 113.3 77.4 116.8 77.2 120.4 76.8 124 77.1 127.6 78.5 131 79.3 134.4 80.7 137.7 82.4 140.9 84.4 143.8 86.7 146.6 89.1 149.2 91.7 151.7 94.5 154 97.8 155.6 101 157.2 104.2 158.7 107.5 160.3 110.8 161.7 114.2 162.6 117.7 163.6 121.4 163.7 124.9 164.5 128.4 164.9 132 165.4 135.6 165.1"/>
                <path class="cls-12" d="M142.8,167.2c0,0-.1,0-.2,0l-3.6-.7-3.4-.2-3.5.3-7.3-.9-3.7-.9h-3.4c0,0-7.2-2-7.2-2l-3.5-1.5-13-6.3-3-2.4-2.7-2.5-2.5-2.7-2.3-2.8-2.1-3.1-1.8-3.2-1.4-3.4-.9-3.7-1.3-3.2c0-.1,0-.2,0-.3l-.3-3.6.6-7.3,1.1-3.7.6-3.4c0,0,0-.2,0-.3l3-6.5,1.7-3.2,2.3-3,2-2.9c0,0,.1-.2.2-.2l5.5-4.7,6.2-4,3.5-1.4,3.5-1.1,6.4-2.7,3.5-.8,2.9-1.7,2.2-2.2,1.5-3,1.3-3.1,1-3.2.3-3.1-1-3.2-.7-3.6c0-.5.1-1,.6-1.2.4-.2.9-.2,1.3.1l2.6,2.3,7.5,4.9,1.2-2.2,4.5-5.3c.2-.3.6-.4,1-.4.4,0,.7.2.9.6l1.7,3,2.2,2.7,1.6,2.2,4.9-2.4,5.1-3.7c.4-.3.9-.3,1.3,0,.4.3.5.8.4,1.3l-1.3,3.5-.9,3.1v3.3c.1,0,0,3.4,0,3.4l1.1,3.1,1.4,2.9,5.2,4.5,2.7,1.7,3.3.8,3.5,1.5,3.2,2.1,3.1,1.6,2.9,2.5,2.8,2c0,0,.2.1.2.2l2.2,2.9,2.4,2.5,2.3,2.8c0,.1.1.2.2.3l1.2,3.4,1.6,3,1.5,3.4c0,.1,0,.2,0,.3l.5,3.6.8,3.4.2,3.8-.3,3.7-.6,3.6v3.5c-.1.1-.2.3-.2.4l-2.8,6.6-2.1,3.2-2.2,2.9-1.8,3c0,0-.1.2-.2.2l-2.6,2.5-3,2.3-3.2,1.9-2.9,2-3.5,1.5-3.2,1.6-3.5,1.3-7.2,1.7-3.6.7-7.3.8-3.7-.5-3.4.7c0,0-.2,0-.2,0ZM135.6,164s0,0,0,0l3.6.2,3.5.6,3.4-.7c.1,0,.3,0,.4,0l3.6.5,6.9-.8,7-1.4,3.5-.8,3.2-1.3,3.2-1.5,3.4-1.4,2.8-1.9,3.1-1.9,2.7-2.1,2.4-2.3,1.8-3,2.2-3,1.9-2.9,2.6-6.3v-3.4c.1,0,.8-3.6.8-3.6l.3-3.5v-3.5c-.1,0-1-3.3-1-3.3l-.5-3.5-1.4-3.1-1.7-3.1-1.2-3.4-2.2-2.6-2.4-2.6-2.1-2.8-2.8-2-2.8-2.4-3-1.5-3.1-2-3.1-1.3-3.3-.8c-.1,0-.2,0-.3-.1l-3-1.9-5.5-4.8c-.1-.1-.2-.2-.3-.4l-1.5-3.2-1.2-3.4c0-.1,0-.3,0-.4l.2-3.5v-3.4c-.1-.1-.1-.2,0-.4l1-3.4-2.3,1.6-5.9,2.9c-.5.3-1.1.1-1.4-.3l-2.1-2.9-2.3-2.8-1-1.8-3.3,3.9-1.6,3c-.1.3-.4.5-.7.6-.3,0-.6,0-.9-.1l-3-1.9-5.9-4v.2s1.1,3.3,1.1,3.3c0,.1,0,.3,0,.4l-.4,3.5-1.1,3.5-1.4,3.2-1.7,3.2c0,.1-.1.2-.2.3l-2.6,2.5-3.3,1.9c-.1,0-.2,0-.3.1l-3.5.7-6.4,2.7-3.5,1.1-3.2,1.3-5.8,3.8-5.3,4.5-1.9,2.9-2.2,2.9-3.1,6.2-1.4,3.1-.6,3.4-1,3.6-.2,3.3-.3,3.6.3,3.2,1.3,3.2.9,3.7,1.3,3.1,1.7,3,1.9,2.9,2.2,2.7,2.4,2.6,2.5,2.4,2.7,2.2,16,7.5,6.8,1.8h3.4c0,0,3.7,1,3.7,1l3.4.3,3.6.5,3.4-.3s0,0,0,0Z"/>
              </g>
              <g class="cls-6">
                <polygon class="cls-12" points="133.7 150.1 132.7 146.6 132.3 143 132 139.4 131.1 135.9 130.6 132.3 130.6 128.7 130.6 125.1 130.6 121.4 130.8 117.8 131.1 114.2 131.4 110.6 131.4 107 132.4 103.5 132.9 99.9 133.6 96.4 134.1 92.7 135.3 89.3 136.9 86.1 139.5 82.5 143.2 81.4 145 83.9 143.8 87.1 142.8 90.2 141.3 93.6 140.2 97.1 139.6 100.8 139.1 104.5 138.6 108.2 137.6 111.8 137.4 115.5 137.3 119.2 136.8 122.9 136.9 126.7 137.1 130.4 137 134.1 138 137.8 137.8 141.6 138.8 145.2 139.9 148.8 140.5 153.2 138.6 156.9 136.2 155.6 134.6 153 133.7 150.1"/>
              </g>
              <g class="cls-6">
                <polygon class="cls-12" points="154.4 152 154.4 149.2 155.9 146.3 158.5 144.5 160.8 141.5 163 138.4 164.9 135.1 165.5 131.3 167 127.8 166.5 124 166 120.7 165.8 117.3 164.2 114.2 163.1 111 161.5 108 159.2 105.4 156.7 103.2 154.2 100.3 153.7 97.1 157.4 95.9 161.5 97.2 164.2 99.5 166.3 102.2 168.8 104.6 170.7 107.5 172.3 110.5 172.9 114 174.4 117.2 174.7 120.7 175.3 124.1 174.9 127.7 174.3 131.2 173.4 134.7 172.8 138.3 170.9 141.4 168.8 144.4 166.2 147 163.7 149.6 160.7 151.3 157.5 152.7 154.4 152"/>
              </g>
              <g class="cls-6">
                <polygon class="cls-12" points="118.4 150.2 118.5 147.6 117.4 144.7 115.7 142 113.6 139 111.8 135.7 110.1 132.3 109.6 128.6 109.1 124.9 109.3 121.1 110.2 117.9 111.6 114.8 112.7 111.6 114.5 108.7 116.4 105.9 118.7 103.3 121.6 101.6 124.6 99.2 125.4 95.8 121.8 94.7 117.9 95.9 114.8 97.2 111.9 99.2 109.8 101.9 107.7 104.6 105.9 107.5 104 110.4 102.6 113.6 102.1 117 101.2 120.3 100.9 123.9 100.6 127.5 101.2 131.1 101.8 134.7 103.1 138.1 104.7 141.4 107 144.3 109.5 146.9 112.2 149 115.2 151 118.4 150.2"/>
              </g>
            </g>
            <g>
              <polygon class="cls-13" points="50.8 71.9 47.1 73.1 43.5 74.7 40.1 76 37.9 73.5 36 70.5 34.4 67.3 32.3 64.4 30.8 61.2 28.9 58.2 26.6 55.4 24.8 52.3 22.8 49.2 26.3 47.9 29.4 46 32.8 44.7 36.2 43.5 39.6 42.1 42.9 40.9 43.9 44.1 44.6 47.6 46 50.9 46.2 54.5 46.9 58 48.4 61.4 49 64.9 50.1 68.3 50.8 71.9"/>
              <g>
                <g>
                  <polygon class="cls-13" points="36.6 53.1 39.7 51.1 42.7 48.9 44.3 45.5 45.8 42.1 46.9 38.9 48.2 35.7 48.8 32.3 49.5 28.9 50.1 25.5 50.3 22.1 49 18.9 47.7 15.8 44.8 14 41.6 13 38.2 13.5 35.5 15.7 33.5 18.5 32.3 22.1 31.1 18.6 29.4 15.7 27.1 13.2 24.4 11.2 21.3 10 18.1 10.4 15.8 12.6 14.5 15.6 14 18.9 14.9 22.1 15.6 25.4 16.9 28.7 13.4 27.5 10.1 26.9 6.9 27.8 3.8 29.2 2.6 32.4 2.2 35.7 2.7 39 5 41.6 7.5 43.9 10.2 45.9 13 47.9 16.2 49.2 19.3 50.7 22.5 51.9 26 53.1 29.4 54.5 33.1 54.3 36.6 53.1"/>
                  <path class="cls-13" d="M29.4,56.7c-.3,0-.6,0-.8-.2l-3.4-1.4-6.6-2.3-3.3-1.7-3-1.2c-.2,0-.3-.2-.5-.3l-5.6-4-2.7-2.4-2.4-2.8c-.3-.3-.5-.7-.5-1.2l-.5-3.4c0-.2,0-.4,0-.5l.3-3.3c0-.2,0-.4.1-.6l1.2-3.1c.2-.5.6-1,1.2-1.2l3.1-1.4c.1,0,.2,0,.3-.1l3.2-.9c.3,0,.7-.1,1,0l2.8.5-1.5-5.7c0-.3-.1-.6,0-.9l.5-3.3c0-.2,0-.4.2-.6l1.3-3c.1-.3.3-.5.5-.7l2.3-2.2c.4-.4.8-.6,1.3-.6l3.2-.3c.3,0,.7,0,1,.1l3.1,1.1c.2,0,.4.2.6.3l2.6,2.1c0,0,.2.2.3.2l2.3,2.5c0,.1.2.2.3.3l1.1,1.7,1.4-1.9c.1-.2.3-.3.4-.5l2.7-2.1c.3-.2.7-.4,1.1-.5l3.4-.5c.3,0,.7,0,1,0l3.2,1c.2,0,.4.1.5.3l2.9,1.8c.4.2.7.6.8,1l2.7,6.3c.1.3.2.6.2,1l-.2,3.4-.6,3.6-.8,3.5-.5,3.3c0,.2,0,.3-.1.5l-1.3,3.2-1.1,3.1-3.2,7c-.2.3-.4.6-.7.9l-3,2.2-3.2,2.1c-.2,0-.3.2-.5.2l-3.5,1.2c-.2,0-.4.1-.6.1l-3.7.2s0,0-.1,0ZM36.6,53.1h0,0ZM14.1,45.9l3,1.1,3.3,1.6,6.4,2.2,3.1,1.3h2.9c0-.1,2.9-1.1,2.9-1.1l2.9-1.8,2.4-1.8,2.9-6.2,1-3,1.2-3.1.5-3.2.8-3.5.5-3.3.2-2.7-2.1-5.1-2-1.3-2.4-.7-2.3.3-2,1.6-1.6,2.3-1.1,3.3c-.3.9-1.3,1.5-2.1,1.5-1,0-1.8-.6-2.1-1.5l-1.1-3.3-1.5-2.4-2-2.2-2.2-1.7-2.3-.8-1.9.2-1.4,1.4-1,2.3-.4,2.5,1.5,6,1.2,3.2c.3.8.1,1.7-.5,2.4-.6.6-1.5.8-2.3.5l-3.3-1.2-2.6-.4-2.6.7-2.1,1-.8,2-.3,2.7.4,2.4,1.8,2.1,2.3,2.1,5.1,3.7Z"/>
                </g>
                <polygon class="cls-9" points="86.4 169.1 89.7 167.8 92.4 165.4 94.7 162.6 96.4 159.4 97.8 156.1 98.5 152.6 99 149 99.3 145.4 100 141.9 99.7 138.3 99.7 134.7 99.5 131.1 98.7 127.5 98.7 123.9 97.9 120.4 97.1 116.8 96.5 113.3 95.9 109.7 95.2 106.1 94.5 102.6 93.2 99.2 92.5 95.6 91.1 92.2 90.1 88.8 88.4 85.5 87.2 82.1 85.8 78.8 84.7 75.3 82.4 72.5 80.8 69.3 79.1 66 76.6 63.2 73.4 61.1 70.6 58.7 67.4 56.8 63.8 55.9 60.2 55.4 56.6 54.8 52.9 55 49.2 55.5 45.5 56.3 42.1 57.7 38.6 59 35.2 60.5 32.1 62.4 29 64.5 25.9 66.5 23.1 69 20.7 71.8 19 75.2 17.8 78.7 16.6 82.1 16.1 85.8 15.7 89.5 16.4 93.2 17.1 96.9 17.9 100.4 19.2 103.7 20.9 106.9 22 110.3 23.7 113.5 25.4 116.6 27 119.8 28.9 122.8 30.5 126 32.5 129 34.6 131.9 36.5 134.9 38.4 138 40.4 141 42.6 143.9 44.7 146.8 47.2 149.4 49.9 151.8 51.9 154.9 54.6 157.3 57.1 159.9 60.2 161.9 63.1 163.9 65.9 166.2 69.1 167.8 72.5 169.2 76 170 79.5 170.7 83.1 170.6 86.4 169.1"/>
                <path class="cls-2" d="M63.2,89.1c-1.9,0-3.8-1.1-4.8-2.9-1.3-2.6-.3-5.8,2.4-7.2l2.9-1.4c.4-.2.8-.3,1.2-.4l2.3-.6,2-1.3c2.5-1.6,5.8-.8,7.3,1.7,1.6,2.5.8,5.8-1.7,7.3l-2.8,1.7c-.5.3-1,.5-1.6.7l-2.6.6-2.3,1.2c-.8.4-1.6.6-2.4.6Z"/>
                <path class="cls-2" d="M72.1,105.6c-1.8,0-3.5-.9-4.5-2.5-1.6-2.5-.8-5.8,1.6-7.3l2.8-1.7c.3-.2.6-.3.9-.5l3-1.2c2.7-1.1,5.8.3,6.9,3,1.1,2.7-.3,5.8-3,6.9l-2.5,1-2.3,1.5c-.9.6-1.9.8-2.8.8Z"/>
                <path class="cls-2" d="M80.8,120.4c-2,0-4-1.2-4.9-3.2-1.2-2.7,0-5.8,2.7-7l2.2-1c2.7-1.2,5.8,0,7,2.7,1.2,2.7,0,5.8-2.7,7l-2.2,1c-.7.3-1.4.5-2.2.5Z"/>
              </g>
            </g>
          </g>
          <polygon class="cls-14" points="320.1 121.6 316.6 121.2 313.1 121.4 309.5 121.7 306 121.4 302.4 121.7 298.9 121.2 295.3 121.4 291.7 121.5 288.5 121.8 285.4 121.5 282.2 121.3 278.6 121.7 275.1 121.7 271.5 121.5 268 121.1 264.4 121.9 260.9 121.7 257.3 121.6 253.7 121.2 250.6 121.1 247.4 121.7 244.2 121.9 240.6 121.4 237.1 121.3 233.5 121.3 230 121.8 226.4 121.8 222.9 121.3 219.3 121.8 215.8 121.4 212.6 121 209.4 121.5 206.2 121.7 202.6 121.8 199.1 121.8 195.5 121.1 192 121.4 188.5 121.2 184.9 121.1 181.3 121.6 177.8 121.8 174.6 121.4 171.4 121.4 168.2 121.4 164.6 121.2 161.1 121.8 157.6 121.7 154 121.8 150.5 121.6 146.9 121.2 143.3 121.7 139.8 121.6 136.6 121.9 133.4 121.6 130.2 121.3 126.7 121.7 123.1 121.1 119.6 121.7 116 121.4 112.5 121.2 108.9 121.3 105.4 121.2 101.8 121.3 98.6 121 95.4 121.1 92.2 121.1 88.7 121.2 85.1 121.7 81.6 121.2 78 121.2 74.5 121.4 70.9 121.1 67.4 121.6 63.8 121.3 60.6 121.1 57.4 121.6 54.2 121.9 50.7 121.2 47.1 121.8 43.6 121.7 40.1 121.6 36.5 121.5 32.9 121.4 29.4 121.8 25.8 121.5 21 121.7 17.5 122.7 15.9 126.2 16.5 131 16.2 134.7 16.6 138.4 16.2 142 16.3 145.7 16.4 149.3 15.8 153 16.6 156.7 16.4 160.3 16.6 164 16.3 167.7 16.4 171.3 15.9 175 16.5 178.7 15.9 182.4 15.9 186.1 16.3 189.7 16.6 193.4 16.1 197.1 16 200.8 15.8 204.5 16 208.2 16.4 211.9 16 215.6 17.8 218.8 21 220.4 21 220.6 24.3 218.9 25.4 215.6 26.1 212 26 208.4 25.8 204.8 25.8 201.2 25.9 197.6 26.2 194 25.6 190.3 25.6 186.7 25.7 183.1 25.9 179.5 25.8 175.9 26.1 172.2 26.2 168.6 25.5 165 25.6 161.3 25.4 157.7 26 154.1 25.4 150.4 25.6 146.8 26 143.1 26.1 139.5 26.1 135.8 27.5 132.7 30.6 131.2 34.3 131.1 38.1 130.9 41.9 130.8 45.7 131 49.4 130.7 52.8 132.5 54.4 135.8 54.1 139.4 54.3 143 54.6 146.7 54.6 150.3 54.2 153.9 54.5 157.5 54.2 161.1 54.2 164.7 54.4 168.3 53.9 171.9 53.9 175.6 54.2 179.2 54.5 182.8 54.5 186.5 54 190.1 54 193.7 54.1 197.4 54.5 201 54.5 204.6 54.1 208.3 54.6 211.9 54.6 215.6 55.7 218.9 59 220.2 59 220.4 62.1 218.7 64 215.6 63.5 212 63.6 208.4 63.9 204.8 63.8 201.2 64.1 197.6 64.2 194 63.8 190.3 63.6 186.7 63.5 183.1 63.7 179.5 63.7 175.9 64 172.2 63.9 168.6 64 165 64 161.3 63.5 157.7 64 154.1 63.4 150.4 63.6 146.8 63.5 143.1 64.1 139.5 64 135.8 65.3 132.5 68.6 130.7 72.3 130.6 76.1 131.4 79.9 130.7 83.6 131.4 87.4 131 90.9 132.3 92.5 135.8 92.1 139.4 91.9 143 92.3 146.7 92 150.3 92.6 153.9 92.2 157.5 91.8 161.1 91.9 164.7 92.1 168.3 92 171.9 91.9 175.6 92.5 179.2 92.2 182.8 91.8 186.5 92.6 190.1 91.9 193.7 92.1 197.4 92.4 201 92.6 204.6 92.1 208.3 92 211.9 92.3 215.6 93.8 218.8 97 220.4 97 220.6 100.1 218.7 101.7 215.6 101.6 212 101.5 208.4 101.4 204.8 102.1 201.2 101.6 197.6 101.4 194 102 190.3 101.5 186.7 101.7 183.1 101.8 179.5 101.5 175.9 101.9 172.2 101.5 168.6 101.8 165 101.7 161.3 101.6 157.7 101.5 154.1 101.7 150.4 102 146.8 101.7 143.1 102 139.5 101.6 135.8 103.4 132.6 106.6 130.9 110.3 130.7 114.1 130.9 117.8 130.7 121.6 130.8 125.4 130.7 128.9 132.3 130.3 135.8 130.5 139.4 130 143 130.3 146.7 129.9 150.3 130.3 153.9 130 157.5 129.8 161.1 130.6 164.7 130.2 168.3 130.2 171.9 129.8 175.6 129.9 179.2 130.5 182.8 130 186.5 130.1 190.1 129.8 193.7 130.1 197.4 130 201 130.3 204.6 130.1 208.3 130.2 211.9 130.6 215.6 131.3 219.3 135 220.3 135 220.5 138.3 219 140 215.6 140.1 212 139.9 208.4 139.8 204.8 139.8 201.2 140.1 197.6 139.6 194 139.5 190.3 140 186.7 140.2 183.1 139.7 179.5 139.6 175.9 139.4 172.2 139.5 168.6 140.1 165 139.7 161.3 139.5 157.7 139.9 154.1 139.8 150.4 140.1 146.8 139.4 143.1 139.4 139.5 139.7 135.8 141 132.2 144.6 131 148.3 130.9 152.1 131.2 155.8 130.9 159.6 130.8 163.4 131 167 132.2 168.6 135.8 168.2 139.4 168.2 143 168.5 146.7 168.3 150.3 168.1 153.9 168.6 157.5 167.9 161.1 168.6 164.7 168 168.3 168.4 171.9 168.1 175.6 168 179.2 168.6 182.8 168.3 186.5 168.3 190.1 168 193.7 168.3 197.4 168.1 201 168.5 204.6 168.5 208.3 168.3 211.9 168.4 215.6 169.4 219.2 173 220 173 220.1 176.4 219 178.1 215.6 178.1 212 178 208.4 177.4 204.8 178.1 201.2 178.1 197.6 177.5 194 177.7 190.3 177.8 186.7 177.4 183.1 177.8 179.5 177.8 175.9 177.4 172.2 177.7 168.6 178 165 178.1 161.3 178 157.7 177.6 154.1 177.6 150.4 178.1 146.8 178.1 143.1 177.4 139.5 178 135.8 179.1 132.4 182.5 130.9 186.3 130.9 190.1 130.7 193.8 130.8 197.6 131.1 201.4 130.7 204.9 132.3 206.5 135.8 205.9 139.4 206.1 143 205.9 146.7 205.8 150.3 206.2 153.9 206.5 157.5 206.6 161.1 205.9 164.7 205.9 168.3 205.8 171.9 206.2 175.6 206.6 179.2 206.5 182.8 206.3 186.5 205.8 190.1 206 193.7 206 197.4 206.4 201 206.5 204.6 205.8 208.3 206.1 211.9 206.3 215.6 207.7 218.8 211 220.2 211 220.5 214.3 219 215.8 215.6 215.9 212 216.2 208.4 215.7 204.8 215.5 201.2 215.9 197.6 215.6 194 215.5 190.3 216 186.7 215.8 183.1 216 179.5 216.2 175.9 215.6 172.2 216 168.6 216.1 165 215.8 161.3 215.3 157.7 216.2 154.1 215.9 150.4 215.7 146.8 216 143.1 215.9 139.5 215.5 135.8 216.9 132.2 220.5 131.1 224.3 131.2 228 130.9 231.8 130.6 235.6 131.2 239.4 131.4 242.7 132.5 243.9 135.8 244.5 139.4 243.8 143 243.8 146.7 244.5 150.3 244.2 153.9 243.9 157.5 244.4 161.1 244.5 164.7 244.2 168.3 243.9 171.9 244 175.6 243.8 179.2 243.8 182.8 244.2 186.5 243.8 190.1 243.9 193.7 243.8 197.4 244.6 201 243.9 204.6 244.6 208.3 243.9 211.9 244.2 215.6 245.6 219 249 220.6 249 220.7 252.2 218.9 253.9 215.6 253.4 212 253.9 208.4 253.7 204.8 254.1 201.2 254 197.6 254 194 253.8 190.3 254.1 186.7 254 183.1 253.9 179.5 253.3 175.9 254 172.2 253.7 168.6 254.1 165 253.4 161.3 253.7 157.7 254.2 154.1 254.1 150.4 253.3 146.8 253.5 143.1 253.9 139.5 253.8 135.8 255.2 132.5 258.5 130.9 262.3 130.6 266 130.8 269.8 130.7 273.6 131 277.4 130.6 280.7 132.4 281.8 135.8 281.9 139.4 282.1 143 282.6 146.7 282.2 150.3 282.3 153.9 282.5 157.5 282.2 161.1 282.4 164.7 282.4 168.3 281.8 171.9 282.2 175.6 282.4 179.2 282.5 182.8 282.5 186.5 281.8 190.1 282.3 193.7 281.9 197.4 281.9 201 282 204.6 282.3 208.3 281.8 211.9 282.1 215.6 283.6 219 286.9 220.1 286.9 220.6 290.3 218.9 291.7 215.6 291.6 212 291.7 208.4 291.5 204.8 291.7 201.2 291.8 197.6 291.5 194 292.1 190.3 291.9 186.7 292 183.1 291.8 179.5 291.8 175.9 292 172.2 291.5 168.6 291.6 165 291.9 161.3 291.3 157.7 291.8 154.1 291.6 150.4 291.8 146.8 292.1 143.1 292 139.5 291.6 135.8 293.3 132.6 296.5 131.4 300.3 131.3 304 131 307.8 131.4 311.6 131.1 315.4 130.8 319 132.1 320.2 135.8 320.5 139.4 320.5 143 320 146.7 319.9 150.3 319.7 153.9 320.3 157.5 320.4 161.1 320.2 164.7 320.4 168.3 320.4 171.9 320 175.6 320.3 179.2 320.1 182.8 319.8 186.5 320 190.1 319.9 193.7 320.1 197.4 319.9 201 319.7 204.6 320.4 208.3 320.2 211.9 320.4 215.6 321.7 218.8 324.9 220.1 324.9 220.8 328 218.7 329.7 215.6 329.7 211.9 329.4 208.3 329.4 204.6 329.9 200.9 329.8 197.3 329.5 193.6 330 190 329.8 186.3 329.6 182.6 329.8 179 329.5 175.3 330 171.6 329.5 167.9 329.7 164.3 329.9 160.6 329.9 156.9 329.9 153.2 329.4 149.5 330.1 145.8 329.4 142.1 330 138.4 329.4 134.7 329.6 131 329.6 126.2 328.6 122.6 324.9 121.3 320.1 121.6"/>
        </g>
        <polygon class="cls-16" points="335.9 424.8 332.5 424.8 328.9 425 325.3 424.6 321.7 424.8 318 424.6 314.4 425 310.8 425 307.2 425.1 303.6 424.8 300 425.1 296.3 425.3 292.7 425.2 289.1 424.7 285.5 425.1 281.9 425.2 278.3 425.3 274.6 425.2 271 425.2 267.4 424.9 263.8 424.8 260.1 425.2 256.5 424.8 252.9 424.7 249.3 425.4 245.6 425.4 242.1 425.2 238.5 424.9 234.9 425.4 231.2 425.1 227.6 424.7 224 425.5 220.4 424.7 216.8 425 213.1 425.1 209.5 425.3 205.9 425.2 202.3 425 198.7 425.1 195.1 424.9 191.4 425.5 187.8 424.7 184.2 424.9 180.6 424.9 177 425.3 173.4 425.4 169.8 425.1 166.2 424.9 162.6 425.3 158.9 424.9 155.3 424.7 151.7 425.5 148 424.9 144.4 424.8 140.8 425.2 137.2 425.1 133.5 425.2 129.9 424.8 126.3 425.3 122.7 424.9 119 425.5 115.4 424.8 111.8 425.2 108.1 425.2 104.5 425 100.9 424.9 97.2 425 93.6 425 90 425.2 86.3 424.8 82.7 425.4 79.1 425.1 75.4 425.4 71.8 424.7 68.2 425.1 64.6 425.2 60.9 424.7 57.3 424.8 53.7 425.1 50 425.1 46.4 424.8 42.7 424.9 39.1 425 35.4 425.2 31.8 425.3 28.1 424.7 24.5 425.3 20.8 425.3 17.2 425.1 13.5 425.2 10 424.9 10.2 421.4 9.6 417.8 9.9 414.2 9.8 410.6 9.4 407 9.9 403.3 10.2 399.7 9.9 396.1 9.8 392.5 9.7 388.9 10.1 385.3 9.6 381.7 9.9 378.1 10.1 374.5 9.7 370.9 9.5 367.3 10.2 363.6 9.9 360 9.9 356.4 9.8 352.8 9.4 349.2 9.5 345.6 9.8 342 9.4 338.4 10.1 334.8 9.4 331.2 9.4 327.6 9.7 324 9.9 320.4 9.4 316.7 9.4 313.1 9.5 309.5 10.1 305.9 10.1 302.2 9.8 298.6 9.5 295 9.9 291.4 9.9 287.8 9.9 284.1 10.1 280.5 10.1 276.9 9.5 273.3 10 269.6 9.5 266 9.6 262.4 10 258.8 9.8 255.1 10 251.5 9.4 247.9 9.9 244.2 9.9 240.6 10 237 9.9 233.3 10.1 229.7 10.1 226.1 9.9 222.5 9.6 218.9 10 215.2 9.8 211.6 10 208 9.6 204.4 9.9 200.7 10.2 197.1 10.2 193.4 10.1 189.8 9.7 186.1 10 182.5 9.8 178.9 9.5 175.2 9.7 171.5 10.1 167.9 9.9 164.2 10.7 161.3 13.5 160.3 17.1 160.2 20.8 160.4 24.4 160.3 28 160.2 31.6 160.9 35.2 160.2 38.8 160.3 42.5 160.5 46.1 160.8 49.7 160.9 53.3 160.6 56.9 160.2 60.5 160.2 64.1 160.1 67.8 160.6 71.4 160.2 75 160.8 78.6 160.7 82.3 160.4 85.9 160.4 89.5 160.7 93.1 160.9 96.7 160.2 100.3 160.1 103.9 160.3 107.5 160.8 111.1 160.1 114.7 160.6 118.4 160.4 122 160.7 125.6 160 129.2 160.7 132.8 160.8 136.5 160.5 140.1 160.4 143.7 160.8 147.3 160.5 150.9 160.3 154.5 160.3 158.1 160.7 161.7 160.1 165.3 160.6 168.9 160.2 172.5 160.1 176.2 160.6 179.8 160.3 183.4 160.4 187 160.3 190.7 160.2 194.3 160.1 197.9 160.4 201.5 160.7 205.2 160.1 208.8 160.4 212.4 160.3 216 160.7 219.6 160.2 223.3 160.4 226.9 160.5 230.5 160.4 234.2 160.7 237.8 160.5 241.4 160.8 245.1 160.5 248.7 160.7 252.3 160.8 256 160.6 259.6 160.4 263.2 160.6 266.8 160.7 270.5 160.6 274.1 160.7 277.7 160.6 281.3 160.5 285 160.4 288.6 160.8 292.2 160.2 295.9 160.7 299.5 160.8 303.2 160.9 306.8 160.3 310.5 160.9 314.1 160.5 317.8 160.1 321.4 160.8 325.1 160.7 328.8 160.3 332.4 160.6 335 161.7 335.7 164.2 335.9 167.8 336.2 171.4 336.3 175.1 336.3 178.7 336.1 182.3 336.1 185.9 336.6 189.5 335.8 193.1 336 196.7 336.1 200.3 336.5 203.9 335.9 207.5 336 211.1 336.2 214.7 336.2 218.4 335.9 222 336 225.6 335.9 229.2 336.4 232.8 335.8 236.4 336.3 240 336.2 243.7 336.1 247.3 336.1 250.9 336.4 254.5 336.4 258.1 336.3 261.7 335.8 265.3 336.1 268.9 335.8 272.5 336.4 276.1 336.3 279.8 335.9 283.4 336.5 287 335.8 290.6 335.8 294.3 336.4 297.9 336.5 301.5 336.5 305.1 336.1 308.7 336.3 312.3 336.4 316 335.9 319.6 335.8 323.2 336.4 326.9 336.3 330.5 336.1 334.1 336 337.7 335.8 341.4 336.4 345 336.4 348.6 335.8 352.3 335.8 355.9 335.9 359.5 336.1 363.1 336.5 366.7 336.1 370.4 336.2 374 335.9 377.6 336.5 381.3 336.3 384.9 336.5 388.5 336.2 392.2 336.5 395.8 335.8 399.5 336.3 403.1 336.4 406.8 336 410.4 336.1 414.1 336.4 417.7 336.2 421.4 335.9 424.8"/>
        <g>
          <path class="cls-11" d="M124.9,189.8l3.5.9,3.5.8,3.2,1.8,3.3,1.5,3,1.9,3.2,1.7,2.4,2.7,2.8,2.3,2.6,2.5,2,3,1.7,3.2,1.5,3.2,1.4,3.3.6,3.6.9,3.5.9,3.5v3.6c0,0-.5,3.6-.5,3.6l.3,3.6-1,3.4-.5,3.5-.7,3.5-1.3,3.4-1.3,3.3-1.4,3.3-2.3,2.8-1.7,3.2-2.5,2.6-2.3,2.7-2.4,2.7-3,2-2.8,2.2-3.2,1.7-3,2.1-3.2,1.6-3.4,1.2-3.2,1.7-3.5.9-3.3,1.4-3.4,1.3-3.6.9h-3.7c0,0-3.6.5-3.6.5h-3.6c0,0-3.7.6-3.7.6l-3.6-.9-3.6-.4-3.6-.5-3.6-.7-3.5-1.2-3.6-.9-3.1-2-3.3-1.5-3.3-1.4-2.9-2.1-2.1-3-2.7-2.3-2-3-2-2.9-2.1-2.9-1.4-3.3-1.2-3.4-1.4-3.3-.6-3.5-.9-3.5-.5-3.5.6-3.6-.4-3.6.8-3.5.7-3.5.7-3.5,1.8-3.1,1.2-3.4,1.9-3,1.8-3.1,2.4-2.6,2.2-2.8,2.6-2.4,2.7-2.3,2.6-2.5,2.9-2.1,3.3-1.5,3-2,3.4-1.2,3.2-1.4,3.1-1.8,3.4-1.1,3.4-.9,3.6-.4,3.5-.8,3.4-1.1h3.6c0,.1,3.5-.1,3.5-.1l3.5-.4,3.5.4h3.6s3.5.6,3.5.6l3.5.4ZM121.7,233.1l3.1-1.8,2.7-2.3,2.9-2.1,2.1-2.9,1.6-3.2.2-3.5.6-3.3-1-3.2-2-2.6-2.5-2.1-2.9-1.4-3.2-.9-3.8-.2-3.8.5-3.3,2.1-2.6,2.8-2.6,2.8-2.2,2.8-.7,3.5-1.3,3.3-.3,3.6v3.5s.3,3.5.3,3.5l1.8,2.9,3.3.9,3.6.5,3.5-1,3.5-.6,3.2-1.5ZM88.3,212.9l-3.5-2.1-4-.2-3.8.5-3.2,2.2-2.5,3-.8,3.8v4c0,0,1.9,3.6,1.9,3.6l2.5,3.1,2.8,2.8,2.9,1.8,3.2,1.2,3.3.6,3.5.4,2.3-2.6.9-3.2.5-3.3.2-3.4-1.4-3.2-.9-3.3-2-2.8-2.1-2.7ZM136.1,258.5l1.1-3.6-.3-3.8-.6-3.7-2.6-2.8-3.1-1.9-3.4-1.1-3.2-1.6-3.6-.2-3.4.7-3.2,1.3-2.3,2.5-.3,3.7,1.5,3.5,1.7,3.4,2.7,2.8,3.1,2.2,3,1.8,3.4,1.2,3.5-.9,3.5-1,2.5-2.6ZM99.3,278l4-.3,3.3-2.1,2.4-3.1.2-3.4-.4-3.4-1.4-3.2-1.6-3.8-3-2.9-3.6-1-2.6,2.1-2.2,2.7-2,3.4-1.4,3.6-.9,3.8.9,3.2,2.4,2.2,2.7,1.6,3.1.9ZM62.5,245.8l-1.2,3.3.7,3.3,1.5,3.2,2.9,2.1,3.2,1.5,3.6.3,3.6.4,3.7-1,3.2-1.9,2.7-2.5,2.2-3.1-.7-3.7-2.9-2.3-2.8-2.5-3.5-1.2-3.6-.5-3.5-.4-3.7.2-2.9,2.2-2.5,2.5Z"/>
          <g>
            <polygon class="cls-10" points="204.1 242.8 204.1 246.6 203.4 250.4 203.6 254.2 203.4 258.1 204 261.9 203.9 265.7 203.7 269.6 204.9 270.8 208.7 270.7 212.4 270.6 216.1 271.1 219.8 270.3 223.5 270.9 227.2 270.9 231 270.5 234.7 270.3 238.4 270.4 240 269.6 239.5 265.8 239.3 261.9 239.2 258.1 239.4 254.3 239.6 250.5 239.9 246.7 239.8 242.8 238.4 241.7 234.7 242.1 231 241.3 227.3 241.3 223.6 241.8 219.9 241.4 216.2 241.9 212.4 241.4 208.7 242 204.9 241.5 204.1 242.8"/>
            <polygon class="cls-10" points="249.5 270.4 253.2 270.7 256.9 271 260.6 270.3 264.3 270.5 268 270.5 271.8 270.4 275.5 270.6 279.2 270.8 283 270.4 283.7 269.6 283.7 265.8 284.5 261.9 284.1 258.1 284.4 254.3 284 250.5 284.2 246.7 283.9 242.8 283 241.9 279.3 241.9 275.6 241.8 271.8 242 268.1 241.3 264.4 241.3 260.7 241.5 257 241.6 253.2 241.5 249.5 242 248.1 242.8 248.5 246.6 248.7 250.4 248.2 254.2 248 258.1 248.6 261.9 247.9 265.7 248.4 269.6 249.5 270.4"/>
            <polygon class="cls-10" points="238.4 204 234.7 203.6 231 204 227.3 203.7 223.6 203.9 219.9 204.3 216.2 203.7 212.4 204.2 208.7 204.2 204.9 204.3 204.2 205 203.5 208.8 203.6 212.6 204 216.5 203.6 220.3 203.7 224.1 203.6 227.9 204.2 231.8 204.9 233.1 208.7 233 212.4 232.7 216.1 232.8 219.8 232.7 223.5 232.7 227.2 232.5 231 233.2 234.7 232.6 238.4 232.8 239.4 231.8 239.6 228 239.3 224.2 239.9 220.4 239.2 216.5 239.5 212.7 239.9 208.9 239.7 205 238.4 204"/>
            <polygon class="cls-10" points="284 231.8 284.4 228 283.9 224.2 284.4 220.4 284.3 216.5 284.1 212.7 283.9 208.9 283.8 205 283 203.5 279.3 203.6 275.6 203.9 271.8 203.7 268.1 203.5 264.4 204 260.7 203.5 257 203.6 253.2 204.1 249.5 203.6 248 205 248 208.8 248.5 212.6 248.5 216.5 248.6 220.3 248.6 224.1 248.6 227.9 248.1 231.8 249.5 232.8 253.2 232.8 256.9 233.3 260.6 232.8 264.3 233.2 268 232.6 271.8 233.3 275.5 233.2 279.2 232.9 283 233.2 284 231.8"/>
          </g>
          <g>
            <polygon class="cls-10" points="203.9 335.1 203.4 338.9 203.6 342.7 204 346.5 203.4 350.3 204.2 354.1 203.4 358 203.5 361.8 204.9 363.1 208.7 363 212.4 363.1 216.1 363.1 219.8 362.9 223.5 362.9 227.2 362.9 231 362.6 234.7 363 238.4 363 239.7 361.8 239.3 358 239.8 354.2 239.8 350.4 240 346.6 239.8 342.7 240 338.9 239.9 335.1 238.4 334.2 234.7 333.8 231 333.8 227.3 333.7 223.6 333.6 219.9 334.1 216.2 334.3 212.4 333.9 208.7 334.3 204.9 333.8 203.9 335.1"/>
            <polygon class="cls-10" points="249.5 362.8 253.2 362.8 256.9 362.8 260.6 363 264.3 362.6 268 362.6 271.8 363.2 275.5 362.7 279.2 363 283 362.6 283.8 361.8 284.1 358 284.1 354.2 284.1 350.4 283.8 346.6 284.1 342.7 283.8 338.9 284 335.1 283 334.2 279.3 333.5 275.6 334.2 271.8 334.3 268.1 334.1 264.4 333.7 260.7 334.3 257 333.8 253.2 333.6 249.5 334 248.7 335.1 248.3 338.9 248.4 342.7 248.4 346.5 248.1 350.3 248.5 354.1 248.5 358 248.6 361.8 249.5 362.8"/>
            <polygon class="cls-10" points="238.4 296.5 234.7 296.3 231 296.4 227.3 296.2 223.6 296.1 219.9 296.5 216.2 295.7 212.4 296.3 208.7 296.2 204.9 296 203.6 297.3 203.5 301.1 203.7 304.9 203.5 308.7 203.7 312.5 203.6 316.3 204.1 320.2 203.5 324 204.9 325 208.7 324.9 212.4 325 216.1 325.3 219.8 325.2 223.5 325.5 227.2 325.4 231 325.1 234.7 325 238.4 325 239.3 324 239.7 320.2 239.9 316.4 240 312.6 239.3 308.8 239.4 305 239.7 301.1 239.9 297.3 238.4 296.5"/>
            <polygon class="cls-10" points="283.9 324 283.9 320.2 284.5 316.4 284.3 312.6 283.9 308.8 283.7 305 284.1 301.1 284.2 297.3 283 296.4 279.3 295.9 275.6 295.7 271.8 296.4 268.1 296.1 264.4 295.9 260.7 296.5 257 296.3 253.2 296.3 249.5 296.2 248.2 297.3 248.5 301.1 248.2 304.9 248.5 308.7 248.4 312.5 247.9 316.3 248.6 320.2 248.7 324 249.5 324.9 253.2 325.2 256.9 325.4 260.6 325.3 264.3 325.2 268 325.4 271.8 325 275.5 325.6 279.2 325.2 283 325.1 283.9 324"/>
          </g>
        </g>
        <polygon class="cls-3" points="139.7 420.5 139.7 416.8 139.5 413.2 139.8 409.6 139.9 406 139.7 402.3 139.5 398.7 139.3 395.1 139.4 391.4 140 387.8 139.5 384.2 139.6 380.5 139.2 376.9 139.9 373.3 139.5 369.6 139.8 366 139.8 362.3 139.5 358.7 139.2 355.1 139.3 351.5 139.3 347.8 139.9 344.2 139.2 340.3 136.9 337.1 133.4 335.5 129.8 334.3 126.3 334.5 122.8 334.5 119.3 334.4 115.8 334.6 112.3 334.7 108.8 334.1 105.3 334.5 101.8 334.7 98.3 334.4 94.8 334.2 91.3 334.6 87.9 334 84.4 334.1 80.7 335.3 77.7 337.5 75.5 340.6 74.8 344.2 74.1 347.9 74.4 351.6 74.3 355.2 74.8 358.9 74.9 362.6 74.2 366.2 74.4 369.9 74.4 373.5 74.7 377.2 74.7 380.8 75 384.5 74.4 388.1 74.3 391.7 74.6 395.4 74.1 399 74.7 402.7 74.2 406.3 74.5 409.9 74.2 413.5 75 417.1 74.9 420.8 74.6 424.4 74.6 425.2 75.4 425.4 79.1 425.1 82.7 425.4 86.3 424.8 90 425.2 93.6 425 97.2 425 100.9 424.9 104.5 425 108.1 425.2 111.8 425.2 115.4 424.8 119 425.5 122.7 424.9 126.3 425.3 129.9 424.8 133.5 425.2 137.2 425.1 139.9 425.2 140 424.1 139.7 420.5"/>
        <polygon class="cls-16" points="132.8 381.7 132 385 129.7 387.6 126.3 388.1 123.2 387.1 120.9 384.8 119.9 381.7 120.9 378.6 123 376 126.3 375 129.8 375.7 131.7 378.6 132.8 381.7"/>
      </g>
    </g>
  </g>
</svg>