<?xml version="1.0" encoding="UTF-8"?>
<svg xmlns="http://www.w3.org/2000/svg" version="1.1" viewBox="0 0 60 39.8">
  <defs>
    <style>
      .cls-1 {
        fill: #b6c929;
      }
    </style>
  </defs>
  <!-- Generator: Adobe Illustrator 28.6.0, SVG Export Plug-In . SVG Version: 1.2.0 Build 709)  -->
  <g>
    <g id="_レイヤー_1" data-name="レイヤー_1">
      <g>
        <polygon class="cls-1" points="11.8 10.6 10.8 9.7 9.8 8.7 10.1 7.3 10 5.9 10.3 4.5 10.4 3 10.2 1.6 10.4 .2 11.8 0 13 .4 13.1 1.6 13.8 3 13.5 4.5 13 5.9 13.3 7.3 13.2 8.7 12.9 9.8 11.8 10.6"/>
        <g>
          <polygon class="cls-1" points="18.2 11.7 17.5 11.5 16.5 10.8 17 9.6 17.9 8.5 18.3 7.1 19.3 6 19.5 4.5 20.8 3.6 21.5 2.5 22.9 2.7 23.7 3.9 23.4 5.2 22.9 6.6 21.8 7.6 20.8 8.6 20.4 10 19.5 11.2 18.2 11.7"/>
          <polygon class="cls-1" points="5.4 12.2 3.7 11.4 3.1 10.1 2.6 8.7 1.9 7.5 .7 6.6 .4 5 0 4 .6 2.8 1.9 3.1 2.7 3.6 3.7 4.7 4.4 5.9 5.4 7 5.9 8.4 6.6 9.6 7 10.8 6.2 11.8 5.4 12.2"/>
        </g>
      </g>
      <g>
        <polygon class="cls-1" points="46.9 38.3 45.7 37.3 45.2 36.1 44.8 34.8 45 33.5 45 32.2 45.2 30.9 44.9 29.6 45.1 28.3 45.5 26.8 46.9 26.6 48.2 27.1 48.8 28.3 48.8 29.6 49 30.9 49.1 32.2 48.9 33.5 48.5 34.8 49.1 36.1 48.5 37.7 46.9 38.3"/>
        <g>
          <polygon class="cls-1" points="54 39.5 53 39.5 52.1 38.4 52.2 36.8 53.2 35.9 54 34.9 54.3 33.5 55.3 32.6 55.6 31.3 56.7 30.4 57.6 29.2 59.2 29.6 60.3 30.8 59.9 32.4 59.3 33.5 58.6 34.6 57.6 35.6 57 36.7 56.1 37.7 55.6 38.9 54.8 39.3 54 39.5"/>
          <polygon class="cls-1" points="39.9 40 39 39.5 38.1 39.1 37.6 37.8 36.8 36.7 36.3 35.6 35.3 34.6 34.9 33.3 34.4 32.1 34.2 30.9 34.6 29.4 36.2 29.3 37.3 30.3 37.8 31.6 38.6 32.6 39.7 33.4 40 34.8 40.8 35.8 41.6 36.8 42 38.4 40.7 39.3 39.9 40"/>
        </g>
      </g>
    </g>
  </g>
</svg>