<?xml version="1.0" encoding="UTF-8"?>
<svg xmlns="http://www.w3.org/2000/svg" version="1.1" viewBox="0 0 70 67.2">
  <defs>
    <style>
      .cls-1 {
        isolation: isolate;
      }

      .cls-2 {
        mix-blend-mode: multiply;
      }

      .cls-3 {
        fill: #fcd25b;
      }
    </style>
  </defs>
  <!-- Generator: Adobe Illustrator 28.6.0, SVG Export Plug-In . SVG Version: 1.2.0 Build 709)  -->
  <g class="cls-1">
    <g id="_レイヤー_1" data-name="レイヤー_1">
      <g>
        <g>
          <polygon class="cls-3" points="42.5 63.2 44.5 62.6 46.6 62.2 48.3 61.1 50.3 60.6 52.2 59.6 54 58.7 55.8 57.6 57.5 56.4 59.2 55.2 60.7 53.8 62.1 52.3 63.6 50.8 64.8 49.1 66 47.5 67.1 45.7 68 43.8 68.3 41.8 68.8 39.8 69.3 37.8 69.3 35.7 69.4 33.7 68.7 31.7 68.3 29.7 67.7 27.7 66.9 25.8 65.7 24.1 64.7 22.3 63.2 20.9 61.6 19.5 60.3 18 58.4 16.9 56.6 16 54.8 15 52.8 14.5 50.9 13.7 48.8 13.5 46.8 13.1 44.7 13 42.7 13.3 40.7 12.9 38.8 12.2 36.9 11.5 35.4 10.1 34.1 8.5 33.4 6.6 32.6 4.8 32.5 2.8 32.4 .6 31.4 2.3 30.4 3.8 29.2 5.1 28 6.5 26.2 5.4 24.4 4.4 22.8 3.1 22.2 4.9 21.6 6.8 21.3 8.9 19.3 8.5 17.4 8.1 15.5 7.6 13.6 6.9 14.7 8.7 16 10.2 16.5 12.2 16.7 14.2 16.6 16.1 16.4 18.2 15.5 20 14.3 21.6 12.5 22.7 11.1 24.2 9.6 25.6 8 26.9 6.5 28.3 5.3 29.9 4.1 31.6 3.1 33.5 2.1 35.3 1.7 37.3 1.1 39.3 .9 41.4 .7 43.4 .6 45.5 1.1 47.5 1.2 49.5 1.9 51.5 2.4 53.5 3.3 55.4 4.8 56.9 6 58.6 7.4 60.1 9 61.4 10.7 62.6 12.5 63.5 14.3 64.5 16.2 65.2 18.2 65.9 20.3 66 22.3 66.2 24.4 66.4 26.4 66.5 28.5 66.6 30.6 66.4 32.6 66.1 34.6 65.4 36.6 65.1 38.6 64.6 40.6 64.1 42.5 63.2"/>
          <path class="cls-3" d="M28.6,67.2h-2.2c0,0-8.3-.7-8.3-.7,0,0,0,0-.1,0l-2-.6-2-.8-1.9-.9-1.8-1-1.7-1.2-1.6-1.4-1.5-1.5s0,0,0,0l-1.1-1.6-1.4-1.5s0-.1-.1-.2l-.9-1.9s0,0,0-.1l-.6-2-.6-1.9s0,0,0-.1l-.2-2.1-.4-1.9c0,0,0-.1,0-.2v-2.1c0,0,.2-2.1.2-2.1l.2-2.1s0,0,0-.1l.6-2,.4-2c0,0,0-.1,0-.2l2-3.7,1.2-1.8,1.2-1.7s0,0,0,0l1.5-1.4,1.7-1.3,2.9-2.8s0,0,.1,0l1.6-1.1,1.2-1.5.8-1.7.2-1.9v-1.9c0,0,0-1.8,0-1.8l-.5-1.8-1.2-1.5-1.1-1.8c-.1-.2-.1-.5,0-.8.2-.2.5-.3.7-.2l1.8.7,5.1,1.1.2-1.4s0,0,0-.1l1.2-3.7c0-.2.2-.4.4-.4.2,0,.4,0,.6.1l1.5,1.2,1.8,1,1.3.8.8-1,1.2-1.3,2-3.1c.2-.2.4-.4.7-.3.3,0,.5.3.5.6v2.1s.2,1.9.2,1.9l.8,1.8.6,1.8,1.2,1.4,1.3,1.3,1.8.7,1.9.7,1.8.3,1.9-.2s0,0,0,0h2.1c0,0,0,0,.1,0l2,.4,2,.2s0,0,.1,0l1.9.7,1.9.5c0,0,.1,0,.2,0l1.8,1.1,1.8.9,1.8,1c0,0,.1,0,.2.1l1.3,1.5,1.5,1.3,1.5,1.5s0,0,.1.2l1,1.8,1.1,1.6s0,0,0,.1l.8,1.9.6,2,.4,2.1.7,1.9c0,0,0,.1,0,.2v4.1c0,0,0,0-.1.1l-.4,2-.5,2-.3,2c0,0,0,.1,0,.2l-.9,1.9-1.1,1.8-1.3,1.7-1.1,1.7s0,0,0,0l-1.5,1.4-1.4,1.5-1.6,1.4-1.8,1.2-1.7,1.2-1.8,1.1-1.9,1-1.9.9s0,0-.1,0l-1.9.5-1.7,1.1c0,0-.1,0-.2,0l-2.1.4-1.8.6-1.8.9s0,0-.1,0l-2,.5-2,.5-2.1.3-1.9.7s0,0-.1,0l-4.1.5ZM18.3,65.2l8.2.6h2c0,0,3.9-.4,3.9-.4l1.9-.7s0,0,.1,0l2.1-.3,1.9-.5,2-.5,1.8-.9s0,0,0,0l2-.6,2-.4,1.7-1.1c0,0,.1,0,.2,0l2-.5,1.8-.9,1.8-1,1.7-1.1,1.7-1.1,1.7-1.2,1.5-1.4,1.4-1.5,1.4-1.4,1.1-1.7,1.3-1.7,1-1.7.8-1.7.3-2,.5-2,.4-1.9v-3.9c0,0-.6-1.9-.6-1.9l-.4-2.1-.6-1.9-.8-1.8-1.2-1.6-1-1.8-1.4-1.4-1.5-1.3s0,0,0,0l-1.3-1.5-1.7-1-1.8-.9-1.7-1.1-1.9-.5-1.9-.7-2-.2-2-.4h-2c0,0-2,.2-2,.2,0,0-.1,0-.2,0l-2-.4-2-.7-1.9-.7c0,0-.2,0-.2-.1l-1.5-1.4-1.3-1.6c0,0,0-.1-.1-.2l-.6-1.9-.8-1.8c0,0,0-.1,0-.2l-.2-2-.9,1.3s0,0,0,0l-1.3,1.3-1.2,1.4c-.2.2-.6.3-.8.1l-1.7-1.1-1.8-1s0,0,0,0l-.8-.7-.9,2.7-.2,2c0,.2-.1.3-.3.4-.1.1-.3.1-.5.1l-2-.4-3.8-.8s0,0,0,0h0s0,0,0,0l1.2,1.5c0,0,0,.1.1.2l.5,2s0,0,0,.1l.2,2v2c0,0-.3,2.1-.3,2.1,0,0,0,.1,0,.2l-.8,1.9s0,0,0,.1l-1.3,1.6c0,0,0,0-.1.1l-1.7,1.1-2.9,2.8-1.7,1.3-1.4,1.3-1.2,1.6-1.2,1.7-1.9,3.5-.4,1.9-.6,2-.2,2-.2,4,.4,1.9.2,2.1.6,1.9.6,2,.8,1.7,1.4,1.4s0,0,0,0l1.1,1.6,1.4,1.4,1.5,1.3,1.6,1.1,1.7,1,1.8.9,1.9.8,1.9.6ZM40.6,64.1h0,0Z"/>
        </g>
        <g class="cls-2">
          <polygon class="cls-3" points="38.3 55.6 37.1 53.9 36.1 52.1 35.2 50.2 34 48.5 33 46.7 32.2 44.8 31.4 42.8 30.7 40.9 30.1 38.9 29.4 36.9 28.9 34.9 28.1 33 27.9 30.9 27.4 28.9 27.1 26.8 26.6 24.8 26.5 22.7 26.6 20.7 27.3 18.2 29 16.9 30.5 17.8 30.6 19.8 30.7 21.6 30.6 23.8 30.7 25.9 31.2 28 31.7 30.1 32.2 32.1 32.4 34.3 33.1 36.3 33.8 38.3 34.3 40.4 35.2 42.4 36 44.3 36.8 46.3 38.1 48.1 38.8 50.2 40.1 51.9 41.4 53.6 42.6 55.8 42.4 58.2 40.8 58 39.4 56.9 38.3 55.6"/>
        </g>
        <g class="cls-2">
          <polygon class="cls-3" points="49.8 52.3 49.2 50.7 49.4 48.9 50.4 47.4 51 45.3 51.6 43.2 51.9 41 51.4 38.9 51.5 36.7 50.4 34.8 49.5 33.1 48.6 31.3 47.2 30 45.9 28.5 44.4 27.2 42.7 26.3 40.8 25.7 38.9 24.7 37.9 23.1 39.7 21.6 42.1 21.5 44 22.1 45.8 23.1 47.6 23.9 49.2 25 50.7 26.3 51.8 28.1 53.2 29.5 54.1 31.3 55.2 33 55.7 35 56.1 37 56.4 39 56.8 41.1 56.4 43.2 55.9 45.2 55.1 47.1 54.3 49 53.1 50.6 51.6 52 49.8 52.3"/>
        </g>
        <g class="cls-2">
          <polygon class="cls-3" points="30.2 58.8 29.7 57.4 28.5 56.1 27 55 25.2 53.8 23.6 52.5 22 51 20.9 49.1 19.9 47.2 19.2 45.2 19 43.3 19.1 41.3 19 39.4 19.4 37.5 19.8 35.5 20.5 33.7 21.7 32.2 22.8 30.2 22.6 28.3 20.4 28.4 18.5 29.9 17.2 31.3 16 32.9 15.5 34.8 14.9 36.7 14.6 38.6 14.2 40.6 14.1 42.6 14.5 44.5 14.7 46.5 15.3 48.4 15.9 50.4 17 52.2 18.1 54 19.5 55.6 21 57 22.8 58 24.7 58.9 26.6 59.5 28.6 59.9 30.2 58.8"/>
        </g>
      </g>
    </g>
  </g>
</svg>