<?xml version="1.0" encoding="UTF-8"?>
<svg xmlns="http://www.w3.org/2000/svg" version="1.1" viewBox="0 0 269 303.6">
  <defs>
    <style>
      .cls-1 {
        fill: #00a85f;
      }

      .cls-2 {
        fill: #bd8943;
      }
    </style>
  </defs>
  <!-- Generator: Adobe Illustrator 28.6.0, SVG Export Plug-In . SVG Version: 1.2.0 Build 709)  -->
  <g>
    <g id="_レイヤー_1" data-name="レイヤー_1">
      <g>
        <g>
          <polygon class="cls-1" points="269 106.7 268.3 110 268.6 113.4 268.2 116.7 268.1 120.1 267.9 123.4 267.6 126.8 267.3 130.1 267.1 133.5 266.7 136.8 265.6 140 265 143.3 264.6 146.7 263.7 149.9 263 153.2 262.4 156.5 260.9 159.5 260.1 162.8 258.4 165.7 257.5 169 255.7 171.8 254.8 175.1 253.3 178.1 251.4 180.9 249.1 183.4 247.8 186.6 245.6 189.1 243.2 191.5 240.8 193.8 238.5 196.2 236.4 198.9 233.8 201.1 230.8 202.6 228.2 204.7 225 206 222.2 207.7 219.1 208.9 216 210.1 212.7 210.9 209.5 211.6 206.3 212.8 202.9 212.7 199.6 213 196.2 213.3 192.9 212.6 189.5 212.7 186.2 212.5 182.9 212 179.6 211.2 176.5 209.8 173.4 208.7 170.3 207.4 167.4 205.9 164.4 204.3 161.5 202.8 158.7 200.8 156 198.8 153.6 196.5 151 194.3 148.9 191.7 147.2 188.8 145.2 186.1 143.2 183.4 140.9 181 139.6 177.8 138.1 174.8 136.6 171.8 135.3 168.8 134.1 165.7 132.9 162.5 131.7 159.4 130.3 156.4 129.9 153 129.1 149.8 128.2 146.6 126.8 143.4 126.1 140.2 125.8 136.8 125.6 133.4 124.7 130.2 125 126.8 124.3 123.5 124.1 120.1 123.5 116.8 124.1 113.4 124.2 110.1 124 106.7 123.9 103.3 123.4 99.9 123.7 96.6 123.9 93.2 124 89.8 125.1 86.6 125 83.2 125.3 79.8 125.6 76.5 126.5 73.2 127.1 69.9 127.8 66.6 128.3 63.3 129.2 60.1 130.7 57 131.5 53.8 132.8 50.7 133.6 47.4 135.2 44.5 136.2 41.3 138.2 38.5 139.3 35.3 141 32.4 142.8 29.6 145.1 27 147.3 24.6 149.4 22 151.6 19.4 153.6 16.7 156.1 14.4 159.1 12.9 161.6 10.6 164.3 8.6 167.2 7.1 170.4 5.9 173.2 4 176.4 3 179.6 1.9 183 1.8 186.3 1.3 189.6 .8 192.9 .2 196.2 0 199.6 .4 202.9 .3 206.3 .7 209.5 1.8 212.8 2.4 216 3.4 219 4.7 222.4 5.3 225 7.5 227.9 9.2 230.8 10.8 233.9 12.3 236 15.1 239 16.7 240.8 19.6 243.5 21.7 245.3 24.6 247.5 27 249.1 30 250.8 32.8 253.1 35.4 254.7 38.3 255.6 41.6 257.1 44.6 258.7 47.5 259.8 50.7 261.4 53.7 261.9 57.1 263.3 60.1 263.9 63.4 264.3 66.8 265.3 70 265.6 73.3 266.4 76.6 266.7 79.9 267.5 83.2 268.2 86.5 268.4 89.8 268.6 93.2 268.3 96.6 268.3 99.9 268.6 103.3 269 106.7"/>
          <polygon class="cls-2" points="237.2 100.8 235 99.2 233.5 96.9 231 95.9 228.5 96.8 226.3 99.2 223.6 101 221.4 103.5 218.8 105.4 216.5 107.6 214.4 110.1 212 112.2 209.3 113.9 206.8 116 204.9 118.7 204.3 118.2 204.2 118.1 203.6 114.9 203.6 111.7 203.5 108.4 203.5 105.2 203.7 102 203.7 98.8 203.4 95.6 203.7 92.4 203.8 89.2 203.3 86 203.3 82.8 202.3 80.2 199.7 79.5 196.6 78.9 193.5 79.3 190.5 79.5 188.2 80.6 186.9 82.8 186.8 86.1 186.7 89.4 186.5 92.7 187 96 186.9 99.3 186.1 102.6 186.4 105.9 186.6 109.2 185.9 112.4 186 115.7 186.1 119 186.5 122.3 186.4 125.5 186.5 128.8 186.1 132.1 185.9 135.4 186.2 138.6 185.8 141.9 185.7 145.2 186.1 148.5 186.1 151.8 185.5 152.5 185.1 151.9 182.2 149.8 179.9 147.2 177.2 144.9 175 142.2 172.5 139.8 169.9 137.4 167.3 135.2 164.8 132.7 162.1 130.5 159.9 129.6 157.3 130 155.3 131.6 153.4 133.2 151.9 135.9 153.5 138.3 155.7 141 157.5 144 160.2 146.2 162.2 149.1 164.6 151.6 166.9 154.1 169.1 156.7 171.8 159 173.8 161.8 176.2 164.3 178.7 166.7 180.9 169.3 183.1 171.9 185.6 174.5 185.5 178.1 184.9 181.5 185.2 184.9 184.7 188.3 184.7 191.6 184.7 195 185 198.4 184.6 201.8 185.1 205.2 184.9 208.6 184.9 212 184.6 215.3 184.4 218.7 184.3 222.1 184.3 225.4 183.9 228.8 184.3 232.2 183.9 235.6 183.7 238.9 184.2 242.3 183.9 245.7 183.7 249.1 184.3 252.5 183.8 255.8 183.9 259.2 183.6 262.6 183.6 265.9 183.3 269.3 183.2 272.7 183.1 276.1 183 279.4 183.6 282.8 183 286.2 183.2 289.5 182.7 292.9 182.9 296.3 183.1 299.6 184 302.2 186.6 303.5 190 303.4 193.4 303.6 196.8 303.6 200.2 303.6 203.6 303.6 206.3 302.4 207.2 299.6 206.7 296.3 206.7 292.9 206.9 289.6 206.8 286.2 206.7 282.9 206.6 279.6 207.2 276.2 206.4 272.9 206.7 269.6 206.8 266.2 206.4 262.9 206 259.6 206.8 256.3 206.5 253 206.5 249.6 205.8 246.3 206.4 243 205.8 239.7 206.5 236.3 206.4 233 206.4 229.7 205.5 226.4 206 223 205.4 219.7 205.5 216.4 205.7 213.1 205.6 209.8 205.3 206.4 205.4 203.1 205.9 199.8 205.1 196.5 204.9 193.2 205.6 189.8 205.3 186.5 205.3 183.2 205.4 179.9 205.4 176.6 205 173.3 205.2 170 205 166.6 204.5 163.3 204.7 160 204.6 156.7 204.2 153.4 204.5 150.1 204.3 146.8 204.1 143.5 204.1 140 206.5 137.4 209.4 135.5 211.2 132.5 213.8 130.3 216.2 127.8 218.8 125.6 220.9 122.9 223 120.2 225.6 118 227.7 115.3 230 112.8 232.5 110.5 234.7 108 237 105.4 238.5 103.2 237.2 100.8"/>
        </g>
        <g>
          <polygon class="cls-1" points="113 193.5 113.4 196.8 113.5 200.1 113.2 203.5 112.1 206.7 111.7 209.9 111.7 213.3 110.2 216.4 109.8 219.7 108.8 222.8 107.5 225.9 106.3 229 104.6 231.9 102.8 234.7 101.2 237.6 99 240 97.5 243.1 95.3 245.6 92.5 247.5 90.4 250.1 87.7 252.1 84.8 253.6 82.1 255.5 79.1 257 76.1 258.3 72.9 259.3 70 260.9 66.6 261 63.3 261.4 60.1 261.6 56.8 261.9 53.5 261.8 50.1 262.1 46.9 261.3 43.8 260.2 40.4 260 37.5 258.3 34.3 257.2 31.3 255.9 28.4 254.2 25.8 252.1 23.2 250 20.7 247.9 18.4 245.4 16.5 242.7 14 240.4 12.4 237.5 10.7 234.7 9.3 231.7 7.7 228.8 6.6 225.7 5.3 222.6 4 219.6 2.8 216.5 2.5 213.2 1.5 210 .6 206.8 .4 203.5 .7 200.1 .2 196.8 0 193.5 .5 190.2 .5 186.9 .4 183.6 1.3 180.3 1.5 177 2.1 173.8 2.8 170.5 3.6 167.3 4.7 164.1 6.2 161.2 7.4 158 9.1 155.2 10.3 152.1 12.7 149.7 14.3 146.8 16.7 144.4 18.3 141.4 20.9 139.4 23.2 137 26.1 135.3 28.4 132.8 31.6 131.7 34.4 130 37.6 128.9 40.4 127 43.6 126.2 46.8 125.3 50.1 124.8 53.5 125.4 56.8 125.2 60.1 124.5 63.4 124.9 66.6 125.8 69.9 126.3 73 127.6 76.1 128.8 79.3 129.7 82.2 131.2 85.1 132.9 87.5 135.3 90 137.4 92.6 139.5 95.3 141.4 97.4 144 98.9 147 101 149.6 102.9 152.3 104.8 155 105.9 158.2 107 161.3 108.8 164.1 109.7 167.4 110.7 170.5 111.6 173.7 112.3 177 112.9 180.2 112.7 183.6 113.4 186.9 113.4 190.2 113 193.5"/>
          <polygon class="cls-2" points="89.6 191.5 86.3 188.3 83.9 186.7 81.5 188.2 78.9 190.5 76.4 193 73.7 195.3 71.3 197.8 68.8 200.2 66.1 202.4 63.3 204.9 63.4 201.3 63.6 198 63.4 194.7 63.5 191.4 62.9 188.1 62.9 184.8 63.1 181.5 61.9 179.4 59.8 178.1 55.8 178.1 51.8 178.3 49.1 178.9 48.7 181.5 48.6 184.8 48.6 188 48.2 191.3 48.2 194.5 47.9 197.8 48.2 201 47.7 204.2 48.4 207.5 48 210.7 48.3 213.9 47.8 216.8 45.4 215.4 43.2 213.2 41.4 210.6 39 208.7 36.5 206.8 34.5 204.4 31.7 203.5 29.5 205.1 27.2 207.6 25.9 209.8 27.3 211.9 29.1 215 31.6 217.4 33.8 220.1 36 222.8 38.5 225.1 40.7 227.8 43.1 230.4 45.4 232.9 47.6 235.5 47.7 238.7 48.1 242.2 48 245.6 47.5 249 47.9 252.4 47.2 255.7 47.5 259.1 47.2 262.5 47.7 265.9 47.7 269.3 47.7 272.7 47.1 276.1 47.2 279.4 47.8 282.8 47.1 286.2 47.3 289.6 47.8 293 47.6 296.4 47.2 299.7 48.3 302.3 50.9 303.5 54.1 302.9 57.4 303.3 60.7 303.3 63.4 302.5 63.8 299.7 64 296.4 64.4 293 64.2 289.7 63.8 286.3 63.6 283 64.4 279.7 63.8 276.4 64 273 64.1 269.7 63.6 266.4 63.7 263 63.7 259.7 64.3 256.4 64.3 253.1 63.4 249.8 63.7 246.5 64 243.1 63.9 239.8 64.1 236.5 63.5 233.2 63.5 229.8 63.9 226.5 63.5 223.1 65.7 220.4 68.2 218.2 70.9 216.1 72.8 213.2 75.2 210.8 77.8 208.7 79.7 205.9 82.6 204 84.6 201.3 87.2 199.1 89.5 196.6 90.5 194.1 89.6 191.5"/>
        </g>
      </g>
    </g>
  </g>
</svg>